<?xml version="1.0" encoding="utf-8" standalone="no"?>
<!DOCTYPE svg PUBLIC "-//W3C//DTD SVG 1.1//EN"
  "http://www.w3.org/Graphics/SVG/1.1/DTD/svg11.dtd">
<svg xmlns:xlink="http://www.w3.org/1999/xlink" width="460.8pt" height="345.6pt" viewBox="0 0 460.8 345.6" xmlns="http://www.w3.org/2000/svg" version="1.1">
 <metadata>
  <rdf:RDF xmlns:dc="http://purl.org/dc/elements/1.1/" xmlns:cc="http://creativecommons.org/ns#" xmlns:rdf="http://www.w3.org/1999/02/22-rdf-syntax-ns#">
   <cc:Work>
    <dc:type rdf:resource="http://purl.org/dc/dcmitype/StillImage"/>
    <dc:date>2022-09-22T15:28:59.129785</dc:date>
    <dc:format>image/svg+xml</dc:format>
    <dc:creator>
     <cc:Agent>
      <dc:title>Matplotlib v3.5.3, https://matplotlib.org/</dc:title>
     </cc:Agent>
    </dc:creator>
   </cc:Work>
  </rdf:RDF>
 </metadata>
 <defs>
  <style type="text/css">*{stroke-linejoin: round; stroke-linecap: butt}</style>
 </defs>
 <g id="figure_1">
  <g id="patch_1">
   <path d="M 0 345.6 
L 460.8 345.6 
L 460.8 0 
L 0 0 
z
" style="fill: #ffffff"/>
  </g>
  <g id="axes_1">
   <g id="patch_2">
    <path d="M 57.6 307.584 
L 414.72 307.584 
L 414.72 41.472 
L 57.6 41.472 
z
" style="fill: #ffffff"/>
   </g>
   <g id="patch_3">
    <path d="M 73.832727 307.584 
L 142.181053 307.584 
L 142.181053 46.064429 
L 73.832727 46.064429 
z
" clip-path="url(#p7703b00eab)" style="fill: #888888; stroke: #000000; stroke-width: 0.8; stroke-linejoin: miter"/>
   </g>
   <g id="patch_4">
    <path d="M 159.268134 307.584 
L 227.616459 307.584 
L 227.616459 45.795301 
L 159.268134 45.795301 
z
" clip-path="url(#p7703b00eab)" style="fill: #888888; stroke: #000000; stroke-width: 0.8; stroke-linejoin: miter"/>
   </g>
   <g id="patch_5">
    <path d="M 244.703541 307.584 
L 313.051866 307.584 
L 313.051866 56.295471 
L 244.703541 56.295471 
z
" clip-path="url(#p7703b00eab)" style="fill: #888888; stroke: #000000; stroke-width: 0.8; stroke-linejoin: miter"/>
   </g>
   <g id="patch_6">
    <path d="M 330.138947 307.584 
L 398.487273 307.584 
L 398.487273 45.969996 
L 330.138947 45.969996 
z
" clip-path="url(#p7703b00eab)" style="fill: #888888; stroke: #000000; stroke-width: 0.8; stroke-linejoin: miter"/>
   </g>
   <g id="PolyCollection_1">
    <defs>
     <path id="m1ec9020212" d="M 109.489138 -281.642013 
L 106.524642 -281.642013 
L 106.511251 -281.862978 
L 106.509372 -282.083943 
L 106.51896 -282.304908 
L 106.539679 -282.525874 
L 106.570908 -282.746839 
L 106.611762 -282.967804 
L 106.661117 -283.188769 
L 106.717645 -283.409734 
L 106.77986 -283.630699 
L 106.846157 -283.851665 
L 106.914868 -284.07263 
L 106.984302 -284.293595 
L 107.052793 -284.51456 
L 107.118747 -284.735525 
L 107.180672 -284.95649 
L 107.237212 -285.177456 
L 107.287176 -285.398421 
L 107.329552 -285.619386 
L 107.363523 -285.840351 
L 107.388474 -286.061316 
L 107.403989 -286.282281 
L 107.409857 -286.503246 
L 107.406058 -286.724212 
L 107.392754 -286.945177 
L 107.37028 -287.166142 
L 107.339126 -287.387107 
L 107.299918 -287.608072 
L 107.253403 -287.829037 
L 107.200424 -288.050003 
L 107.1419 -288.270968 
L 107.0788 -288.491933 
L 107.012118 -288.712898 
L 106.942847 -288.933863 
L 106.87195 -289.154828 
L 106.800337 -289.375794 
L 106.728834 -289.596759 
L 106.65816 -289.817724 
L 106.588904 -290.038689 
L 106.521507 -290.259654 
L 106.45624 -290.480619 
L 106.393197 -290.701585 
L 106.332284 -290.92255 
L 106.273217 -291.143515 
L 106.21552 -291.36448 
L 106.158534 -291.585445 
L 106.10142 -291.80641 
L 106.043171 -292.027375 
L 105.982624 -292.248341 
L 105.918473 -292.469306 
L 105.849274 -292.690271 
L 105.773458 -292.911236 
L 105.689339 -293.132201 
L 105.595112 -293.353166 
L 105.488855 -293.574132 
L 105.368532 -293.795097 
L 105.231981 -294.016062 
L 105.076917 -294.237027 
L 104.900928 -294.457992 
L 104.701475 -294.678957 
L 104.475908 -294.899923 
L 104.221475 -295.120888 
L 103.93536 -295.341853 
L 103.61472 -295.562818 
L 103.256752 -295.783783 
L 102.858761 -296.004748 
L 102.418261 -296.225714 
L 101.933079 -296.446679 
L 101.401486 -296.667644 
L 100.822329 -296.888609 
L 100.195176 -297.109574 
L 99.520467 -297.330539 
L 98.799656 -297.551505 
L 98.035341 -297.77247 
L 97.231384 -297.993435 
L 96.392991 -298.2144 
L 95.526773 -298.435365 
L 94.640747 -298.65633 
L 93.744308 -298.877295 
L 92.848129 -299.098261 
L 91.964017 -299.319226 
L 91.104707 -299.540191 
L 90.283606 -299.761156 
L 89.51448 -299.982121 
L 88.811109 -300.203086 
L 88.186905 -300.424052 
L 87.654521 -300.645017 
L 87.225454 -300.865982 
L 86.909664 -301.086947 
L 86.715226 -301.307912 
L 86.648038 -301.528877 
L 86.711582 -301.749843 
L 86.906766 -301.970808 
L 87.231856 -302.191773 
L 87.68249 -302.412738 
L 88.251786 -302.633703 
L 88.930539 -302.854668 
L 89.707496 -303.075634 
L 90.569694 -303.296599 
L 91.502858 -303.517564 
L 124.510922 -303.517564 
L 124.510922 -303.517564 
L 125.444086 -303.296599 
L 126.306284 -303.075634 
L 127.083241 -302.854668 
L 127.761994 -302.633703 
L 128.33129 -302.412738 
L 128.781924 -302.191773 
L 129.107014 -301.970808 
L 129.302198 -301.749843 
L 129.365742 -301.528877 
L 129.298554 -301.307912 
L 129.104116 -301.086947 
L 128.788326 -300.865982 
L 128.359259 -300.645017 
L 127.826875 -300.424052 
L 127.202671 -300.203086 
L 126.4993 -299.982121 
L 125.730174 -299.761156 
L 124.909073 -299.540191 
L 124.049763 -299.319226 
L 123.165651 -299.098261 
L 122.269472 -298.877295 
L 121.373033 -298.65633 
L 120.487007 -298.435365 
L 119.620788 -298.2144 
L 118.782396 -297.993435 
L 117.978438 -297.77247 
L 117.214124 -297.551505 
L 116.493313 -297.330539 
L 115.818604 -297.109574 
L 115.191451 -296.888609 
L 114.612293 -296.667644 
L 114.0807 -296.446679 
L 113.595519 -296.225714 
L 113.155019 -296.004748 
L 112.757028 -295.783783 
L 112.39906 -295.562818 
L 112.07842 -295.341853 
L 111.792305 -295.120888 
L 111.537872 -294.899923 
L 111.312304 -294.678957 
L 111.112852 -294.457992 
L 110.936863 -294.237027 
L 110.781799 -294.016062 
L 110.645248 -293.795097 
L 110.524925 -293.574132 
L 110.418668 -293.353166 
L 110.324441 -293.132201 
L 110.240322 -292.911236 
L 110.164506 -292.690271 
L 110.095307 -292.469306 
L 110.031156 -292.248341 
L 109.970609 -292.027375 
L 109.91236 -291.80641 
L 109.855246 -291.585445 
L 109.79826 -291.36448 
L 109.740563 -291.143515 
L 109.681496 -290.92255 
L 109.620583 -290.701585 
L 109.55754 -290.480619 
L 109.492273 -290.259654 
L 109.424876 -290.038689 
L 109.35562 -289.817724 
L 109.284946 -289.596759 
L 109.213443 -289.375794 
L 109.14183 -289.154828 
L 109.070933 -288.933863 
L 109.001662 -288.712898 
L 108.93498 -288.491933 
L 108.87188 -288.270968 
L 108.813356 -288.050003 
L 108.760377 -287.829037 
L 108.713862 -287.608072 
L 108.674654 -287.387107 
L 108.6435 -287.166142 
L 108.621026 -286.945177 
L 108.607722 -286.724212 
L 108.603923 -286.503246 
L 108.609791 -286.282281 
L 108.625306 -286.061316 
L 108.650256 -285.840351 
L 108.684228 -285.619386 
L 108.726604 -285.398421 
L 108.776568 -285.177456 
L 108.833108 -284.95649 
L 108.895033 -284.735525 
L 108.960986 -284.51456 
L 109.029478 -284.293595 
L 109.098912 -284.07263 
L 109.167623 -283.851665 
L 109.23392 -283.630699 
L 109.296135 -283.409734 
L 109.352663 -283.188769 
L 109.402017 -282.967804 
L 109.442872 -282.746839 
L 109.474101 -282.525874 
L 109.49482 -282.304908 
L 109.504408 -282.083943 
L 109.502529 -281.862978 
L 109.489138 -281.642013 
z
" style="stroke: #000000; stroke-width: 0.8"/>
    </defs>
    <g clip-path="url(#p7703b00eab)">
     <use xlink:href="#m1ec9020212" x="0" y="345.6" style="fill: #696969; stroke: #000000; stroke-width: 0.8"/>
    </g>
   </g>
   <g id="PolyCollection_2">
    <defs>
     <path id="m4248f586d2" d="M 194.350636 -288.031635 
L 192.533958 -288.031635 
L 192.525479 -288.18308 
L 192.521778 -288.334525 
L 192.522191 -288.48597 
L 192.525861 -288.637415 
L 192.531761 -288.78886 
L 192.538729 -288.940305 
L 192.545508 -289.09175 
L 192.55079 -289.243195 
L 192.553258 -289.39464 
L 192.551636 -289.546085 
L 192.544729 -289.69753 
L 192.531458 -289.848975 
L 192.510895 -290.00042 
L 192.482286 -290.151865 
L 192.445065 -290.30331 
L 192.398862 -290.454755 
L 192.343505 -290.6062 
L 192.279007 -290.757645 
L 192.205559 -290.90909 
L 192.123505 -291.060535 
L 192.033326 -291.21198 
L 191.935613 -291.363425 
L 191.83105 -291.51487 
L 191.720387 -291.666315 
L 191.604427 -291.81776 
L 191.484011 -291.969205 
L 191.360004 -292.12065 
L 191.233293 -292.272095 
L 191.104781 -292.42354 
L 190.975385 -292.574985 
L 190.84604 -292.72643 
L 190.717698 -292.877875 
L 190.591328 -293.02932 
L 190.467916 -293.180765 
L 190.348457 -293.33221 
L 190.233949 -293.483655 
L 190.125374 -293.6351 
L 190.023676 -293.786545 
L 189.929741 -293.93799 
L 189.844355 -294.089435 
L 189.76817 -294.24088 
L 189.701658 -294.392325 
L 189.645061 -294.54377 
L 189.598346 -294.695215 
L 189.561146 -294.846661 
L 189.532713 -294.998106 
L 189.511872 -295.149551 
L 189.49698 -295.300996 
L 189.485894 -295.452441 
L 189.475954 -295.603886 
L 189.463979 -295.755331 
L 189.44628 -295.906776 
L 189.418697 -296.058221 
L 189.376651 -296.209666 
L 189.315222 -296.361111 
L 189.229251 -296.512556 
L 189.113454 -296.664001 
L 188.962565 -296.815446 
L 188.771482 -296.966891 
L 188.535431 -297.118336 
L 188.25013 -297.269781 
L 187.911951 -297.421226 
L 187.518078 -297.572671 
L 187.066643 -297.724116 
L 186.556851 -297.875561 
L 185.989069 -298.027006 
L 185.364899 -298.178451 
L 184.687204 -298.329896 
L 183.960113 -298.481341 
L 183.188988 -298.632786 
L 182.380354 -298.784231 
L 181.541812 -298.935676 
L 180.681914 -299.087121 
L 179.810026 -299.238566 
L 178.936172 -299.390011 
L 178.070866 -299.541456 
L 177.224936 -299.692901 
L 176.409347 -299.844346 
L 175.635024 -299.995791 
L 174.912672 -300.147236 
L 174.252603 -300.298681 
L 173.664565 -300.450126 
L 173.157579 -300.601571 
L 172.739775 -300.753016 
L 172.418239 -300.904461 
L 172.198867 -301.055906 
L 172.086229 -301.207351 
L 172.083445 -301.358796 
L 172.192085 -301.510241 
L 172.412087 -301.661686 
L 172.741706 -301.813131 
L 173.177501 -301.964576 
L 173.714358 -302.116021 
L 174.345555 -302.267466 
L 175.062876 -302.418911 
L 175.856771 -302.570356 
L 176.716549 -302.721801 
L 177.630622 -302.873246 
L 178.586768 -303.024691 
L 208.297825 -303.024691 
L 208.297825 -303.024691 
L 209.253971 -302.873246 
L 210.168044 -302.721801 
L 211.027822 -302.570356 
L 211.821717 -302.418911 
L 212.539039 -302.267466 
L 213.170236 -302.116021 
L 213.707092 -301.964576 
L 214.142887 -301.813131 
L 214.472507 -301.661686 
L 214.692508 -301.510241 
L 214.801148 -301.358796 
L 214.798365 -301.207351 
L 214.685727 -301.055906 
L 214.466355 -300.904461 
L 214.144819 -300.753016 
L 213.727014 -300.601571 
L 213.220028 -300.450126 
L 212.63199 -300.298681 
L 211.971921 -300.147236 
L 211.249569 -299.995791 
L 210.475246 -299.844346 
L 209.659658 -299.692901 
L 208.813727 -299.541456 
L 207.948421 -299.390011 
L 207.074567 -299.238566 
L 206.202679 -299.087121 
L 205.342781 -298.935676 
L 204.504239 -298.784231 
L 203.695605 -298.632786 
L 202.92448 -298.481341 
L 202.19739 -298.329896 
L 201.519695 -298.178451 
L 200.895524 -298.027006 
L 200.327743 -297.875561 
L 199.81795 -297.724116 
L 199.366515 -297.572671 
L 198.972642 -297.421226 
L 198.634463 -297.269781 
L 198.349162 -297.118336 
L 198.113111 -296.966891 
L 197.922028 -296.815446 
L 197.771139 -296.664001 
L 197.655343 -296.512556 
L 197.569371 -296.361111 
L 197.507943 -296.209666 
L 197.465896 -296.058221 
L 197.438313 -295.906776 
L 197.420614 -295.755331 
L 197.408639 -295.603886 
L 197.398699 -295.452441 
L 197.387613 -295.300996 
L 197.372721 -295.149551 
L 197.35188 -294.998106 
L 197.323447 -294.846661 
L 197.286247 -294.695215 
L 197.239532 -294.54377 
L 197.182936 -294.392325 
L 197.116423 -294.24088 
L 197.040238 -294.089435 
L 196.954852 -293.93799 
L 196.860917 -293.786545 
L 196.75922 -293.6351 
L 196.650644 -293.483655 
L 196.536136 -293.33221 
L 196.416678 -293.180765 
L 196.293266 -293.02932 
L 196.166896 -292.877875 
L 196.038553 -292.72643 
L 195.909208 -292.574985 
L 195.779812 -292.42354 
L 195.6513 -292.272095 
L 195.524589 -292.12065 
L 195.400583 -291.969205 
L 195.280166 -291.81776 
L 195.164207 -291.666315 
L 195.053544 -291.51487 
L 194.94898 -291.363425 
L 194.851267 -291.21198 
L 194.761088 -291.060535 
L 194.679034 -290.90909 
L 194.605586 -290.757645 
L 194.541088 -290.6062 
L 194.485731 -290.454755 
L 194.439528 -290.30331 
L 194.402307 -290.151865 
L 194.373698 -290.00042 
L 194.353135 -289.848975 
L 194.339864 -289.69753 
L 194.332957 -289.546085 
L 194.331335 -289.39464 
L 194.333804 -289.243195 
L 194.339085 -289.09175 
L 194.345864 -288.940305 
L 194.352833 -288.78886 
L 194.358733 -288.637415 
L 194.362403 -288.48597 
L 194.362816 -288.334525 
L 194.359114 -288.18308 
L 194.350636 -288.031635 
z
" style="stroke: #000000; stroke-width: 0.8"/>
    </defs>
    <g clip-path="url(#p7703b00eab)">
     <use xlink:href="#m4248f586d2" x="0" y="345.6" style="fill: #696969; stroke: #000000; stroke-width: 0.8"/>
    </g>
   </g>
   <g id="PolyCollection_3">
    <defs>
     <path id="m62fed28527" d="M 279.559381 -157.059909 
L 278.196026 -157.059909 
L 278.19133 -158.54085 
L 278.19193 -160.021791 
L 278.197163 -161.502733 
L 278.206149 -162.983674 
L 278.217841 -164.464616 
L 278.231083 -165.945557 
L 278.24468 -167.426498 
L 278.257475 -168.90744 
L 278.268414 -170.388381 
L 278.276621 -171.869323 
L 278.281446 -173.350264 
L 278.282512 -174.831205 
L 278.279735 -176.312147 
L 278.273332 -177.793088 
L 278.263806 -179.27403 
L 278.251916 -180.754971 
L 278.238624 -182.235912 
L 278.225038 -183.716854 
L 278.212344 -185.197795 
L 278.201725 -186.678737 
L 278.194298 -188.159678 
L 278.191043 -189.64062 
L 278.192746 -191.121561 
L 278.199962 -192.602502 
L 278.212985 -194.083444 
L 278.231837 -195.564385 
L 278.256283 -197.045327 
L 278.285846 -198.526268 
L 278.319849 -200.007209 
L 278.357459 -201.488151 
L 278.397738 -202.969092 
L 278.439695 -204.450034 
L 278.482343 -205.930975 
L 278.524738 -207.411916 
L 278.566023 -208.892858 
L 278.605452 -210.373799 
L 278.642412 -211.854741 
L 278.676427 -213.335682 
L 278.70716 -214.816623 
L 278.734395 -216.297565 
L 278.758028 -217.778506 
L 278.778037 -219.259448 
L 278.794461 -220.740389 
L 278.807375 -222.22133 
L 278.816861 -223.702272 
L 278.822988 -225.183213 
L 278.825791 -226.664155 
L 278.825257 -228.145096 
L 278.821312 -229.626037 
L 278.813814 -231.106979 
L 278.802553 -232.58792 
L 278.787248 -234.068862 
L 278.76755 -235.549803 
L 278.743048 -237.030744 
L 278.713271 -238.511686 
L 278.677688 -239.992627 
L 278.635705 -241.473569 
L 278.586653 -242.95451 
L 278.52977 -244.435451 
L 278.464169 -245.916393 
L 278.388796 -247.397334 
L 278.302372 -248.878276 
L 278.203333 -250.359217 
L 278.089746 -251.840159 
L 277.959232 -253.3211 
L 277.808882 -254.802041 
L 277.635186 -256.282983 
L 277.433978 -257.763924 
L 277.200406 -259.244866 
L 276.928949 -260.725807 
L 276.613478 -262.206748 
L 276.247388 -263.68769 
L 275.823795 -265.168631 
L 275.335808 -266.649573 
L 274.776883 -268.130514 
L 274.141242 -269.611455 
L 273.424352 -271.092397 
L 272.623443 -272.573338 
L 271.738035 -274.05428 
L 270.770445 -275.535221 
L 269.726232 -277.016162 
L 268.61454 -278.497104 
L 267.448298 -279.978045 
L 266.244248 -281.458987 
L 265.022756 -282.939928 
L 263.807405 -284.420869 
L 262.624361 -285.901811 
L 261.50152 -287.382752 
L 260.467484 -288.863694 
L 259.550388 -290.344635 
L 258.776672 -291.825576 
L 258.169847 -293.306518 
L 257.74934 -294.787459 
L 257.529504 -296.268401 
L 257.518852 -297.749342 
L 257.719569 -299.230283 
L 258.127354 -300.711225 
L 258.731586 -302.192166 
L 259.515823 -303.673108 
L 298.239584 -303.673108 
L 298.239584 -303.673108 
L 299.02382 -302.192166 
L 299.628053 -300.711225 
L 300.035838 -299.230283 
L 300.236555 -297.749342 
L 300.225903 -296.268401 
L 300.006067 -294.787459 
L 299.58556 -293.306518 
L 298.978734 -291.825576 
L 298.205019 -290.344635 
L 297.287923 -288.863694 
L 296.253886 -287.382752 
L 295.131046 -285.901811 
L 293.948002 -284.420869 
L 292.732651 -282.939928 
L 291.511159 -281.458987 
L 290.307109 -279.978045 
L 289.140867 -278.497104 
L 288.029175 -277.016162 
L 286.984962 -275.535221 
L 286.017372 -274.05428 
L 285.131964 -272.573338 
L 284.331055 -271.092397 
L 283.614165 -269.611455 
L 282.978524 -268.130514 
L 282.419598 -266.649573 
L 281.931612 -265.168631 
L 281.508018 -263.68769 
L 281.141929 -262.206748 
L 280.826458 -260.725807 
L 280.555 -259.244866 
L 280.321428 -257.763924 
L 280.12022 -256.282983 
L 279.946525 -254.802041 
L 279.796175 -253.3211 
L 279.665661 -251.840159 
L 279.552074 -250.359217 
L 279.453034 -248.878276 
L 279.366611 -247.397334 
L 279.291237 -245.916393 
L 279.225636 -244.435451 
L 279.168753 -242.95451 
L 279.119702 -241.473569 
L 279.077718 -239.992627 
L 279.042135 -238.511686 
L 279.012358 -237.030744 
L 278.987857 -235.549803 
L 278.968159 -234.068862 
L 278.952853 -232.58792 
L 278.941592 -231.106979 
L 278.934095 -229.626037 
L 278.930149 -228.145096 
L 278.929615 -226.664155 
L 278.932418 -225.183213 
L 278.938545 -223.702272 
L 278.948031 -222.22133 
L 278.960945 -220.740389 
L 278.97737 -219.259448 
L 278.997379 -217.778506 
L 279.021012 -216.297565 
L 279.048247 -214.816623 
L 279.078979 -213.335682 
L 279.112995 -211.854741 
L 279.149955 -210.373799 
L 279.189384 -208.892858 
L 279.230669 -207.411916 
L 279.273064 -205.930975 
L 279.315712 -204.450034 
L 279.357669 -202.969092 
L 279.397948 -201.488151 
L 279.435557 -200.007209 
L 279.469561 -198.526268 
L 279.499124 -197.045327 
L 279.523569 -195.564385 
L 279.542422 -194.083444 
L 279.555444 -192.602502 
L 279.562661 -191.121561 
L 279.564364 -189.64062 
L 279.561109 -188.159678 
L 279.553682 -186.678737 
L 279.543063 -185.197795 
L 279.530368 -183.716854 
L 279.516783 -182.235912 
L 279.503491 -180.754971 
L 279.491601 -179.27403 
L 279.482075 -177.793088 
L 279.475672 -176.312147 
L 279.472895 -174.831205 
L 279.47396 -173.350264 
L 279.478786 -171.869323 
L 279.486992 -170.388381 
L 279.497932 -168.90744 
L 279.510726 -167.426498 
L 279.524324 -165.945557 
L 279.537565 -164.464616 
L 279.549257 -162.983674 
L 279.558244 -161.502733 
L 279.563477 -160.021791 
L 279.564077 -158.54085 
L 279.559381 -157.059909 
z
" style="stroke: #000000; stroke-width: 0.8"/>
    </defs>
    <g clip-path="url(#p7703b00eab)">
     <use xlink:href="#m62fed28527" x="0" y="345.6" style="fill: #696969; stroke: #000000; stroke-width: 0.8"/>
    </g>
   </g>
   <g id="PolyCollection_4">
    <defs>
     <path id="mf370c9e0d3" d="M 366.511731 -291.405218 
L 362.114489 -291.405218 
L 362.043615 -291.519294 
L 361.978335 -291.63337 
L 361.918534 -291.747447 
L 361.86396 -291.861523 
L 361.814241 -291.975599 
L 361.768908 -292.089676 
L 361.727425 -292.203752 
L 361.689216 -292.317829 
L 361.653698 -292.431905 
L 361.620309 -292.545981 
L 361.588539 -292.660058 
L 361.557953 -292.774134 
L 361.528211 -292.888211 
L 361.49908 -293.002287 
L 361.470444 -293.116363 
L 361.442298 -293.23044 
L 361.414742 -293.344516 
L 361.387966 -293.458592 
L 361.362226 -293.572669 
L 361.337817 -293.686745 
L 361.315044 -293.800822 
L 361.294183 -293.914898 
L 361.275452 -294.028974 
L 361.258972 -294.143051 
L 361.244735 -294.257127 
L 361.232581 -294.371203 
L 361.222169 -294.48528 
L 361.212967 -294.599356 
L 361.204235 -294.713433 
L 361.195032 -294.827509 
L 361.184217 -294.941585 
L 361.170464 -295.055662 
L 361.152284 -295.169738 
L 361.128056 -295.283815 
L 361.096054 -295.397891 
L 361.054492 -295.511967 
L 361.00156 -295.626044 
L 360.935468 -295.74012 
L 360.85449 -295.854196 
L 360.757 -295.968273 
L 360.641516 -296.082349 
L 360.506727 -296.196426 
L 360.351523 -296.310502 
L 360.175014 -296.424578 
L 359.976544 -296.538655 
L 359.755693 -296.652731 
L 359.512275 -296.766808 
L 359.246325 -296.880884 
L 358.958076 -296.99496 
L 358.64794 -297.109037 
L 358.316466 -297.223113 
L 357.964311 -297.337189 
L 357.5922 -297.451266 
L 357.200887 -297.565342 
L 356.791124 -297.679419 
L 356.363628 -297.793495 
L 355.919062 -297.907571 
L 355.458019 -298.021648 
L 354.981026 -298.135724 
L 354.488554 -298.249801 
L 353.981043 -298.363877 
L 353.458942 -298.477953 
L 352.92276 -298.59203 
L 352.373127 -298.706106 
L 351.81087 -298.820182 
L 351.237083 -298.934259 
L 350.653209 -299.048335 
L 350.061111 -299.162412 
L 349.463141 -299.276488 
L 348.862197 -299.390564 
L 348.261758 -299.504641 
L 347.665905 -299.618717 
L 347.079313 -299.732794 
L 346.507227 -299.84687 
L 345.9554 -299.960946 
L 345.430013 -300.075023 
L 344.937567 -300.189099 
L 344.484751 -300.303175 
L 344.078301 -300.417252 
L 343.724831 -300.531328 
L 343.430669 -300.645405 
L 343.201687 -300.759481 
L 343.043131 -300.873557 
L 342.959471 -300.987634 
L 342.954258 -301.10171 
L 343.030013 -301.215786 
L 343.18813 -301.329863 
L 343.428825 -301.443939 
L 343.751098 -301.558016 
L 344.152745 -301.672092 
L 344.63039 -301.786168 
L 345.179552 -301.900245 
L 345.794745 -302.014321 
L 346.469593 -302.128398 
L 347.196972 -302.242474 
L 347.969166 -302.35655 
L 348.778034 -302.470627 
L 349.615177 -302.584703 
L 350.472112 -302.698779 
L 378.154108 -302.698779 
L 378.154108 -302.698779 
L 379.011043 -302.584703 
L 379.848186 -302.470627 
L 380.657054 -302.35655 
L 381.429248 -302.242474 
L 382.156627 -302.128398 
L 382.831475 -302.014321 
L 383.446668 -301.900245 
L 383.99583 -301.786168 
L 384.473475 -301.672092 
L 384.875122 -301.558016 
L 385.197395 -301.443939 
L 385.43809 -301.329863 
L 385.596208 -301.215786 
L 385.671962 -301.10171 
L 385.666749 -300.987634 
L 385.583089 -300.873557 
L 385.424533 -300.759481 
L 385.195551 -300.645405 
L 384.901389 -300.531328 
L 384.547919 -300.417252 
L 384.141469 -300.303175 
L 383.688653 -300.189099 
L 383.196207 -300.075023 
L 382.67082 -299.960946 
L 382.118993 -299.84687 
L 381.546907 -299.732794 
L 380.960316 -299.618717 
L 380.364462 -299.504641 
L 379.764023 -299.390564 
L 379.163079 -299.276488 
L 378.56511 -299.162412 
L 377.973011 -299.048335 
L 377.389137 -298.934259 
L 376.81535 -298.820182 
L 376.253093 -298.706106 
L 375.70346 -298.59203 
L 375.167278 -298.477953 
L 374.645177 -298.363877 
L 374.137666 -298.249801 
L 373.645194 -298.135724 
L 373.168201 -298.021648 
L 372.707159 -297.907571 
L 372.262592 -297.793495 
L 371.835096 -297.679419 
L 371.425333 -297.565342 
L 371.034021 -297.451266 
L 370.661909 -297.337189 
L 370.309754 -297.223113 
L 369.97828 -297.109037 
L 369.668144 -296.99496 
L 369.379896 -296.880884 
L 369.113945 -296.766808 
L 368.870527 -296.652731 
L 368.649676 -296.538655 
L 368.451206 -296.424578 
L 368.274697 -296.310502 
L 368.119493 -296.196426 
L 367.984704 -296.082349 
L 367.86922 -295.968273 
L 367.77173 -295.854196 
L 367.690752 -295.74012 
L 367.62466 -295.626044 
L 367.571728 -295.511967 
L 367.530166 -295.397891 
L 367.498164 -295.283815 
L 367.473936 -295.169738 
L 367.455757 -295.055662 
L 367.442003 -294.941585 
L 367.431188 -294.827509 
L 367.421985 -294.713433 
L 367.413254 -294.599356 
L 367.404051 -294.48528 
L 367.393639 -294.371203 
L 367.381485 -294.257127 
L 367.367248 -294.143051 
L 367.350768 -294.028974 
L 367.332037 -293.914898 
L 367.311176 -293.800822 
L 367.288403 -293.686745 
L 367.263994 -293.572669 
L 367.238254 -293.458592 
L 367.211478 -293.344516 
L 367.183922 -293.23044 
L 367.155776 -293.116363 
L 367.12714 -293.002287 
L 367.098009 -292.888211 
L 367.068267 -292.774134 
L 367.037681 -292.660058 
L 367.005911 -292.545981 
L 366.972522 -292.431905 
L 366.937004 -292.317829 
L 366.898795 -292.203752 
L 366.857312 -292.089676 
L 366.811979 -291.975599 
L 366.76226 -291.861523 
L 366.707686 -291.747447 
L 366.647885 -291.63337 
L 366.582605 -291.519294 
L 366.511731 -291.405218 
z
" style="stroke: #000000; stroke-width: 0.8"/>
    </defs>
    <g clip-path="url(#p7703b00eab)">
     <use xlink:href="#mf370c9e0d3" x="0" y="345.6" style="fill: #696969; stroke: #000000; stroke-width: 0.8"/>
    </g>
   </g>
   <g id="matplotlib.axis_1">
    <g id="xtick_1">
     <g id="line2d_1">
      <defs>
       <path id="m73dab9c3c2" d="M 0 0 
L 0 3.5 
" style="stroke: #323034; stroke-width: 0.8"/>
      </defs>
      <g>
       <use xlink:href="#m73dab9c3c2" x="108.00689" y="307.584" style="fill: #323034; stroke: #323034; stroke-width: 0.8"/>
      </g>
     </g>
     <g id="text_1">
      <!-- Precision -->
      <g style="fill: #323034" transform="translate(83.330952 323.173375)scale(0.12 -0.12)">
       <defs>
        <path id="ArialMT-50" d="M 494 0 
L 494 4581 
L 2222 4581 
Q 2678 4581 2919 4538 
Q 3256 4481 3484 4323 
Q 3713 4166 3852 3881 
Q 3991 3597 3991 3256 
Q 3991 2672 3619 2267 
Q 3247 1863 2275 1863 
L 1100 1863 
L 1100 0 
L 494 0 
z
M 1100 2403 
L 2284 2403 
Q 2872 2403 3119 2622 
Q 3366 2841 3366 3238 
Q 3366 3525 3220 3729 
Q 3075 3934 2838 4000 
Q 2684 4041 2272 4041 
L 1100 4041 
L 1100 2403 
z
" transform="scale(0.015625)"/>
        <path id="ArialMT-72" d="M 416 0 
L 416 3319 
L 922 3319 
L 922 2816 
Q 1116 3169 1280 3281 
Q 1444 3394 1641 3394 
Q 1925 3394 2219 3213 
L 2025 2691 
Q 1819 2813 1613 2813 
Q 1428 2813 1281 2702 
Q 1134 2591 1072 2394 
Q 978 2094 978 1738 
L 978 0 
L 416 0 
z
" transform="scale(0.015625)"/>
        <path id="ArialMT-65" d="M 2694 1069 
L 3275 997 
Q 3138 488 2766 206 
Q 2394 -75 1816 -75 
Q 1088 -75 661 373 
Q 234 822 234 1631 
Q 234 2469 665 2931 
Q 1097 3394 1784 3394 
Q 2450 3394 2872 2941 
Q 3294 2488 3294 1666 
Q 3294 1616 3291 1516 
L 816 1516 
Q 847 969 1125 678 
Q 1403 388 1819 388 
Q 2128 388 2347 550 
Q 2566 713 2694 1069 
z
M 847 1978 
L 2700 1978 
Q 2663 2397 2488 2606 
Q 2219 2931 1791 2931 
Q 1403 2931 1139 2672 
Q 875 2413 847 1978 
z
" transform="scale(0.015625)"/>
        <path id="ArialMT-63" d="M 2588 1216 
L 3141 1144 
Q 3050 572 2676 248 
Q 2303 -75 1759 -75 
Q 1078 -75 664 370 
Q 250 816 250 1647 
Q 250 2184 428 2587 
Q 606 2991 970 3192 
Q 1334 3394 1763 3394 
Q 2303 3394 2647 3120 
Q 2991 2847 3088 2344 
L 2541 2259 
Q 2463 2594 2264 2762 
Q 2066 2931 1784 2931 
Q 1359 2931 1093 2626 
Q 828 2322 828 1663 
Q 828 994 1084 691 
Q 1341 388 1753 388 
Q 2084 388 2306 591 
Q 2528 794 2588 1216 
z
" transform="scale(0.015625)"/>
        <path id="ArialMT-69" d="M 425 3934 
L 425 4581 
L 988 4581 
L 988 3934 
L 425 3934 
z
M 425 0 
L 425 3319 
L 988 3319 
L 988 0 
L 425 0 
z
" transform="scale(0.015625)"/>
        <path id="ArialMT-73" d="M 197 991 
L 753 1078 
Q 800 744 1014 566 
Q 1228 388 1613 388 
Q 2000 388 2187 545 
Q 2375 703 2375 916 
Q 2375 1106 2209 1216 
Q 2094 1291 1634 1406 
Q 1016 1563 777 1677 
Q 538 1791 414 1992 
Q 291 2194 291 2438 
Q 291 2659 392 2848 
Q 494 3038 669 3163 
Q 800 3259 1026 3326 
Q 1253 3394 1513 3394 
Q 1903 3394 2198 3281 
Q 2494 3169 2634 2976 
Q 2775 2784 2828 2463 
L 2278 2388 
Q 2241 2644 2061 2787 
Q 1881 2931 1553 2931 
Q 1166 2931 1000 2803 
Q 834 2675 834 2503 
Q 834 2394 903 2306 
Q 972 2216 1119 2156 
Q 1203 2125 1616 2013 
Q 2213 1853 2448 1751 
Q 2684 1650 2818 1456 
Q 2953 1263 2953 975 
Q 2953 694 2789 445 
Q 2625 197 2315 61 
Q 2006 -75 1616 -75 
Q 969 -75 630 194 
Q 291 463 197 991 
z
" transform="scale(0.015625)"/>
        <path id="ArialMT-6f" d="M 213 1659 
Q 213 2581 725 3025 
Q 1153 3394 1769 3394 
Q 2453 3394 2887 2945 
Q 3322 2497 3322 1706 
Q 3322 1066 3130 698 
Q 2938 331 2570 128 
Q 2203 -75 1769 -75 
Q 1072 -75 642 372 
Q 213 819 213 1659 
z
M 791 1659 
Q 791 1022 1069 705 
Q 1347 388 1769 388 
Q 2188 388 2466 706 
Q 2744 1025 2744 1678 
Q 2744 2294 2464 2611 
Q 2184 2928 1769 2928 
Q 1347 2928 1069 2612 
Q 791 2297 791 1659 
z
" transform="scale(0.015625)"/>
        <path id="ArialMT-6e" d="M 422 0 
L 422 3319 
L 928 3319 
L 928 2847 
Q 1294 3394 1984 3394 
Q 2284 3394 2536 3286 
Q 2788 3178 2913 3003 
Q 3038 2828 3088 2588 
Q 3119 2431 3119 2041 
L 3119 0 
L 2556 0 
L 2556 2019 
Q 2556 2363 2490 2533 
Q 2425 2703 2258 2804 
Q 2091 2906 1866 2906 
Q 1506 2906 1245 2678 
Q 984 2450 984 1813 
L 984 0 
L 422 0 
z
" transform="scale(0.015625)"/>
       </defs>
       <use xlink:href="#ArialMT-50"/>
       <use xlink:href="#ArialMT-72" x="66.699219"/>
       <use xlink:href="#ArialMT-65" x="100"/>
       <use xlink:href="#ArialMT-63" x="155.615234"/>
       <use xlink:href="#ArialMT-69" x="205.615234"/>
       <use xlink:href="#ArialMT-73" x="227.832031"/>
       <use xlink:href="#ArialMT-69" x="277.832031"/>
       <use xlink:href="#ArialMT-6f" x="300.048828"/>
       <use xlink:href="#ArialMT-6e" x="355.664062"/>
      </g>
     </g>
    </g>
    <g id="xtick_2">
     <g id="line2d_2">
      <g>
       <use xlink:href="#m73dab9c3c2" x="193.442297" y="307.584" style="fill: #323034; stroke: #323034; stroke-width: 0.8"/>
      </g>
     </g>
     <g id="text_2">
      <!-- Recall -->
      <g style="fill: #323034" transform="translate(176.769797 323.173375)scale(0.12 -0.12)">
       <defs>
        <path id="ArialMT-52" d="M 503 0 
L 503 4581 
L 2534 4581 
Q 3147 4581 3465 4457 
Q 3784 4334 3975 4021 
Q 4166 3709 4166 3331 
Q 4166 2844 3850 2509 
Q 3534 2175 2875 2084 
Q 3116 1969 3241 1856 
Q 3506 1613 3744 1247 
L 4541 0 
L 3778 0 
L 3172 953 
Q 2906 1366 2734 1584 
Q 2563 1803 2427 1890 
Q 2291 1978 2150 2013 
Q 2047 2034 1813 2034 
L 1109 2034 
L 1109 0 
L 503 0 
z
M 1109 2559 
L 2413 2559 
Q 2828 2559 3062 2645 
Q 3297 2731 3419 2920 
Q 3541 3109 3541 3331 
Q 3541 3656 3305 3865 
Q 3069 4075 2559 4075 
L 1109 4075 
L 1109 2559 
z
" transform="scale(0.015625)"/>
        <path id="ArialMT-61" d="M 2588 409 
Q 2275 144 1986 34 
Q 1697 -75 1366 -75 
Q 819 -75 525 192 
Q 231 459 231 875 
Q 231 1119 342 1320 
Q 453 1522 633 1644 
Q 813 1766 1038 1828 
Q 1203 1872 1538 1913 
Q 2219 1994 2541 2106 
Q 2544 2222 2544 2253 
Q 2544 2597 2384 2738 
Q 2169 2928 1744 2928 
Q 1347 2928 1158 2789 
Q 969 2650 878 2297 
L 328 2372 
Q 403 2725 575 2942 
Q 747 3159 1072 3276 
Q 1397 3394 1825 3394 
Q 2250 3394 2515 3294 
Q 2781 3194 2906 3042 
Q 3031 2891 3081 2659 
Q 3109 2516 3109 2141 
L 3109 1391 
Q 3109 606 3145 398 
Q 3181 191 3288 0 
L 2700 0 
Q 2613 175 2588 409 
z
M 2541 1666 
Q 2234 1541 1622 1453 
Q 1275 1403 1131 1340 
Q 988 1278 909 1158 
Q 831 1038 831 891 
Q 831 666 1001 516 
Q 1172 366 1500 366 
Q 1825 366 2078 508 
Q 2331 650 2450 897 
Q 2541 1088 2541 1459 
L 2541 1666 
z
" transform="scale(0.015625)"/>
        <path id="ArialMT-6c" d="M 409 0 
L 409 4581 
L 972 4581 
L 972 0 
L 409 0 
z
" transform="scale(0.015625)"/>
       </defs>
       <use xlink:href="#ArialMT-52"/>
       <use xlink:href="#ArialMT-65" x="72.216797"/>
       <use xlink:href="#ArialMT-63" x="127.832031"/>
       <use xlink:href="#ArialMT-61" x="177.832031"/>
       <use xlink:href="#ArialMT-6c" x="233.447266"/>
       <use xlink:href="#ArialMT-6c" x="255.664062"/>
      </g>
     </g>
    </g>
    <g id="xtick_3">
     <g id="line2d_3">
      <g>
       <use xlink:href="#m73dab9c3c2" x="278.877703" y="307.584" style="fill: #323034; stroke: #323034; stroke-width: 0.8"/>
      </g>
     </g>
     <g id="text_3">
      <!-- Specificity -->
      <g style="fill: #323034" transform="translate(251.869266 323.319625)scale(0.12 -0.12)">
       <defs>
        <path id="ArialMT-53" d="M 288 1472 
L 859 1522 
Q 900 1178 1048 958 
Q 1197 738 1509 602 
Q 1822 466 2213 466 
Q 2559 466 2825 569 
Q 3091 672 3220 851 
Q 3350 1031 3350 1244 
Q 3350 1459 3225 1620 
Q 3100 1781 2813 1891 
Q 2628 1963 1997 2114 
Q 1366 2266 1113 2400 
Q 784 2572 623 2826 
Q 463 3081 463 3397 
Q 463 3744 659 4045 
Q 856 4347 1234 4503 
Q 1613 4659 2075 4659 
Q 2584 4659 2973 4495 
Q 3363 4331 3572 4012 
Q 3781 3694 3797 3291 
L 3216 3247 
Q 3169 3681 2898 3903 
Q 2628 4125 2100 4125 
Q 1550 4125 1298 3923 
Q 1047 3722 1047 3438 
Q 1047 3191 1225 3031 
Q 1400 2872 2139 2705 
Q 2878 2538 3153 2413 
Q 3553 2228 3743 1945 
Q 3934 1663 3934 1294 
Q 3934 928 3725 604 
Q 3516 281 3123 101 
Q 2731 -78 2241 -78 
Q 1619 -78 1198 103 
Q 778 284 539 648 
Q 300 1013 288 1472 
z
" transform="scale(0.015625)"/>
        <path id="ArialMT-70" d="M 422 -1272 
L 422 3319 
L 934 3319 
L 934 2888 
Q 1116 3141 1344 3267 
Q 1572 3394 1897 3394 
Q 2322 3394 2647 3175 
Q 2972 2956 3137 2557 
Q 3303 2159 3303 1684 
Q 3303 1175 3120 767 
Q 2938 359 2589 142 
Q 2241 -75 1856 -75 
Q 1575 -75 1351 44 
Q 1128 163 984 344 
L 984 -1272 
L 422 -1272 
z
M 931 1641 
Q 931 1000 1190 694 
Q 1450 388 1819 388 
Q 2194 388 2461 705 
Q 2728 1022 2728 1688 
Q 2728 2322 2467 2637 
Q 2206 2953 1844 2953 
Q 1484 2953 1207 2617 
Q 931 2281 931 1641 
z
" transform="scale(0.015625)"/>
        <path id="ArialMT-66" d="M 556 0 
L 556 2881 
L 59 2881 
L 59 3319 
L 556 3319 
L 556 3672 
Q 556 4006 616 4169 
Q 697 4388 901 4523 
Q 1106 4659 1475 4659 
Q 1713 4659 2000 4603 
L 1916 4113 
Q 1741 4144 1584 4144 
Q 1328 4144 1222 4034 
Q 1116 3925 1116 3625 
L 1116 3319 
L 1763 3319 
L 1763 2881 
L 1116 2881 
L 1116 0 
L 556 0 
z
" transform="scale(0.015625)"/>
        <path id="ArialMT-74" d="M 1650 503 
L 1731 6 
Q 1494 -44 1306 -44 
Q 1000 -44 831 53 
Q 663 150 594 308 
Q 525 466 525 972 
L 525 2881 
L 113 2881 
L 113 3319 
L 525 3319 
L 525 4141 
L 1084 4478 
L 1084 3319 
L 1650 3319 
L 1650 2881 
L 1084 2881 
L 1084 941 
Q 1084 700 1114 631 
Q 1144 563 1211 522 
Q 1278 481 1403 481 
Q 1497 481 1650 503 
z
" transform="scale(0.015625)"/>
        <path id="ArialMT-79" d="M 397 -1278 
L 334 -750 
Q 519 -800 656 -800 
Q 844 -800 956 -737 
Q 1069 -675 1141 -563 
Q 1194 -478 1313 -144 
Q 1328 -97 1363 -6 
L 103 3319 
L 709 3319 
L 1400 1397 
Q 1534 1031 1641 628 
Q 1738 1016 1872 1384 
L 2581 3319 
L 3144 3319 
L 1881 -56 
Q 1678 -603 1566 -809 
Q 1416 -1088 1222 -1217 
Q 1028 -1347 759 -1347 
Q 597 -1347 397 -1278 
z
" transform="scale(0.015625)"/>
       </defs>
       <use xlink:href="#ArialMT-53"/>
       <use xlink:href="#ArialMT-70" x="66.699219"/>
       <use xlink:href="#ArialMT-65" x="122.314453"/>
       <use xlink:href="#ArialMT-63" x="177.929688"/>
       <use xlink:href="#ArialMT-69" x="227.929688"/>
       <use xlink:href="#ArialMT-66" x="250.146484"/>
       <use xlink:href="#ArialMT-69" x="277.929688"/>
       <use xlink:href="#ArialMT-63" x="300.146484"/>
       <use xlink:href="#ArialMT-69" x="350.146484"/>
       <use xlink:href="#ArialMT-74" x="372.363281"/>
       <use xlink:href="#ArialMT-79" x="400.146484"/>
      </g>
     </g>
    </g>
    <g id="xtick_4">
     <g id="line2d_4">
      <g>
       <use xlink:href="#m73dab9c3c2" x="364.31311" y="307.584" style="fill: #323034; stroke: #323034; stroke-width: 0.8"/>
      </g>
     </g>
     <g id="text_4">
      <!-- F1 -->
      <g style="fill: #323034" transform="translate(357.31186 323.173375)scale(0.12 -0.12)">
       <defs>
        <path id="ArialMT-46" d="M 525 0 
L 525 4581 
L 3616 4581 
L 3616 4041 
L 1131 4041 
L 1131 2622 
L 3281 2622 
L 3281 2081 
L 1131 2081 
L 1131 0 
L 525 0 
z
" transform="scale(0.015625)"/>
        <path id="ArialMT-31" d="M 2384 0 
L 1822 0 
L 1822 3584 
Q 1619 3391 1289 3197 
Q 959 3003 697 2906 
L 697 3450 
Q 1169 3672 1522 3987 
Q 1875 4303 2022 4600 
L 2384 4600 
L 2384 0 
z
" transform="scale(0.015625)"/>
       </defs>
       <use xlink:href="#ArialMT-46"/>
       <use xlink:href="#ArialMT-31" x="61.083984"/>
      </g>
     </g>
    </g>
    <g id="text_5">
     <!-- Metric -->
     <g transform="translate(217.105781 338.866187)scale(0.14 -0.14)">
      <defs>
       <path id="ArialMT-4d" d="M 475 0 
L 475 4581 
L 1388 4581 
L 2472 1338 
Q 2622 884 2691 659 
Q 2769 909 2934 1394 
L 4031 4581 
L 4847 4581 
L 4847 0 
L 4263 0 
L 4263 3834 
L 2931 0 
L 2384 0 
L 1059 3900 
L 1059 0 
L 475 0 
z
" transform="scale(0.015625)"/>
      </defs>
      <use xlink:href="#ArialMT-4d"/>
      <use xlink:href="#ArialMT-65" x="83.300781"/>
      <use xlink:href="#ArialMT-74" x="138.916016"/>
      <use xlink:href="#ArialMT-72" x="166.699219"/>
      <use xlink:href="#ArialMT-69" x="200"/>
      <use xlink:href="#ArialMT-63" x="222.216797"/>
     </g>
    </g>
   </g>
   <g id="matplotlib.axis_2">
    <g id="ytick_1">
     <g id="line2d_5">
      <defs>
       <path id="m8a8335ad47" d="M 0 0 
L -3.5 0 
" style="stroke: #323034; stroke-width: 0.8"/>
      </defs>
      <g>
       <use xlink:href="#m8a8335ad47" x="57.6" y="307.584" style="fill: #323034; stroke: #323034; stroke-width: 0.8"/>
      </g>
     </g>
     <g id="text_6">
      <!-- $\mathdefault{0.0}$ -->
      <g style="fill: #323034" transform="translate(33.8 311.878687)scale(0.12 -0.12)">
       <defs>
        <path id="ArialMT-30" d="M 266 2259 
Q 266 3072 433 3567 
Q 600 4063 929 4331 
Q 1259 4600 1759 4600 
Q 2128 4600 2406 4451 
Q 2684 4303 2865 4023 
Q 3047 3744 3150 3342 
Q 3253 2941 3253 2259 
Q 3253 1453 3087 958 
Q 2922 463 2592 192 
Q 2263 -78 1759 -78 
Q 1097 -78 719 397 
Q 266 969 266 2259 
z
M 844 2259 
Q 844 1131 1108 757 
Q 1372 384 1759 384 
Q 2147 384 2411 759 
Q 2675 1134 2675 2259 
Q 2675 3391 2411 3762 
Q 2147 4134 1753 4134 
Q 1366 4134 1134 3806 
Q 844 3388 844 2259 
z
" transform="scale(0.015625)"/>
        <path id="ArialMT-2e" d="M 581 0 
L 581 641 
L 1222 641 
L 1222 0 
L 581 0 
z
" transform="scale(0.015625)"/>
       </defs>
       <use xlink:href="#ArialMT-30" transform="translate(0 0.125)"/>
       <use xlink:href="#ArialMT-2e" transform="translate(55.615234 0.125)"/>
       <use xlink:href="#ArialMT-30" transform="translate(83.398438 0.125)"/>
      </g>
     </g>
    </g>
    <g id="ytick_2">
     <g id="line2d_6">
      <g>
       <use xlink:href="#m8a8335ad47" x="57.6" y="254.3616" style="fill: #323034; stroke: #323034; stroke-width: 0.8"/>
      </g>
     </g>
     <g id="text_7">
      <!-- $\mathdefault{0.2}$ -->
      <g style="fill: #323034" transform="translate(33.8 258.656287)scale(0.12 -0.12)">
       <defs>
        <path id="ArialMT-32" d="M 3222 541 
L 3222 0 
L 194 0 
Q 188 203 259 391 
Q 375 700 629 1000 
Q 884 1300 1366 1694 
Q 2113 2306 2375 2664 
Q 2638 3022 2638 3341 
Q 2638 3675 2398 3904 
Q 2159 4134 1775 4134 
Q 1369 4134 1125 3890 
Q 881 3647 878 3216 
L 300 3275 
Q 359 3922 746 4261 
Q 1134 4600 1788 4600 
Q 2447 4600 2831 4234 
Q 3216 3869 3216 3328 
Q 3216 3053 3103 2787 
Q 2991 2522 2730 2228 
Q 2469 1934 1863 1422 
Q 1356 997 1212 845 
Q 1069 694 975 541 
L 3222 541 
z
" transform="scale(0.015625)"/>
       </defs>
       <use xlink:href="#ArialMT-30" transform="translate(0 0.125)"/>
       <use xlink:href="#ArialMT-2e" transform="translate(55.615234 0.125)"/>
       <use xlink:href="#ArialMT-32" transform="translate(83.398438 0.125)"/>
      </g>
     </g>
    </g>
    <g id="ytick_3">
     <g id="line2d_7">
      <g>
       <use xlink:href="#m8a8335ad47" x="57.6" y="201.1392" style="fill: #323034; stroke: #323034; stroke-width: 0.8"/>
      </g>
     </g>
     <g id="text_8">
      <!-- $\mathdefault{0.4}$ -->
      <g style="fill: #323034" transform="translate(33.8 205.433887)scale(0.12 -0.12)">
       <defs>
        <path id="ArialMT-34" d="M 2069 0 
L 2069 1097 
L 81 1097 
L 81 1613 
L 2172 4581 
L 2631 4581 
L 2631 1613 
L 3250 1613 
L 3250 1097 
L 2631 1097 
L 2631 0 
L 2069 0 
z
M 2069 1613 
L 2069 3678 
L 634 1613 
L 2069 1613 
z
" transform="scale(0.015625)"/>
       </defs>
       <use xlink:href="#ArialMT-30" transform="translate(0 0.125)"/>
       <use xlink:href="#ArialMT-2e" transform="translate(55.615234 0.125)"/>
       <use xlink:href="#ArialMT-34" transform="translate(83.398438 0.125)"/>
      </g>
     </g>
    </g>
    <g id="ytick_4">
     <g id="line2d_8">
      <g>
       <use xlink:href="#m8a8335ad47" x="57.6" y="147.9168" style="fill: #323034; stroke: #323034; stroke-width: 0.8"/>
      </g>
     </g>
     <g id="text_9">
      <!-- $\mathdefault{0.6}$ -->
      <g style="fill: #323034" transform="translate(33.8 152.211487)scale(0.12 -0.12)">
       <defs>
        <path id="ArialMT-36" d="M 3184 3459 
L 2625 3416 
Q 2550 3747 2413 3897 
Q 2184 4138 1850 4138 
Q 1581 4138 1378 3988 
Q 1113 3794 959 3422 
Q 806 3050 800 2363 
Q 1003 2672 1297 2822 
Q 1591 2972 1913 2972 
Q 2475 2972 2870 2558 
Q 3266 2144 3266 1488 
Q 3266 1056 3080 686 
Q 2894 316 2569 119 
Q 2244 -78 1831 -78 
Q 1128 -78 684 439 
Q 241 956 241 2144 
Q 241 3472 731 4075 
Q 1159 4600 1884 4600 
Q 2425 4600 2770 4297 
Q 3116 3994 3184 3459 
z
M 888 1484 
Q 888 1194 1011 928 
Q 1134 663 1356 523 
Q 1578 384 1822 384 
Q 2178 384 2434 671 
Q 2691 959 2691 1453 
Q 2691 1928 2437 2201 
Q 2184 2475 1800 2475 
Q 1419 2475 1153 2201 
Q 888 1928 888 1484 
z
" transform="scale(0.015625)"/>
       </defs>
       <use xlink:href="#ArialMT-30" transform="translate(0 0.125)"/>
       <use xlink:href="#ArialMT-2e" transform="translate(55.615234 0.125)"/>
       <use xlink:href="#ArialMT-36" transform="translate(83.398438 0.125)"/>
      </g>
     </g>
    </g>
    <g id="ytick_5">
     <g id="line2d_9">
      <g>
       <use xlink:href="#m8a8335ad47" x="57.6" y="94.6944" style="fill: #323034; stroke: #323034; stroke-width: 0.8"/>
      </g>
     </g>
     <g id="text_10">
      <!-- $\mathdefault{0.8}$ -->
      <g style="fill: #323034" transform="translate(33.8 98.989088)scale(0.12 -0.12)">
       <defs>
        <path id="ArialMT-38" d="M 1131 2484 
Q 781 2613 612 2850 
Q 444 3088 444 3419 
Q 444 3919 803 4259 
Q 1163 4600 1759 4600 
Q 2359 4600 2725 4251 
Q 3091 3903 3091 3403 
Q 3091 3084 2923 2848 
Q 2756 2613 2416 2484 
Q 2838 2347 3058 2040 
Q 3278 1734 3278 1309 
Q 3278 722 2862 322 
Q 2447 -78 1769 -78 
Q 1091 -78 675 323 
Q 259 725 259 1325 
Q 259 1772 486 2073 
Q 713 2375 1131 2484 
z
M 1019 3438 
Q 1019 3113 1228 2906 
Q 1438 2700 1772 2700 
Q 2097 2700 2305 2904 
Q 2513 3109 2513 3406 
Q 2513 3716 2298 3927 
Q 2084 4138 1766 4138 
Q 1444 4138 1231 3931 
Q 1019 3725 1019 3438 
z
M 838 1322 
Q 838 1081 952 856 
Q 1066 631 1291 507 
Q 1516 384 1775 384 
Q 2178 384 2440 643 
Q 2703 903 2703 1303 
Q 2703 1709 2433 1975 
Q 2163 2241 1756 2241 
Q 1359 2241 1098 1978 
Q 838 1716 838 1322 
z
" transform="scale(0.015625)"/>
       </defs>
       <use xlink:href="#ArialMT-30" transform="translate(0 0.125)"/>
       <use xlink:href="#ArialMT-2e" transform="translate(55.615234 0.125)"/>
       <use xlink:href="#ArialMT-38" transform="translate(83.398438 0.125)"/>
      </g>
     </g>
    </g>
    <g id="ytick_6">
     <g id="line2d_10">
      <g>
       <use xlink:href="#m8a8335ad47" x="57.6" y="41.472" style="fill: #323034; stroke: #323034; stroke-width: 0.8"/>
      </g>
     </g>
     <g id="text_11">
      <!-- $\mathdefault{1.0}$ -->
      <g style="fill: #323034" transform="translate(33.8 45.766688)scale(0.12 -0.12)">
       <use xlink:href="#ArialMT-31" transform="translate(0 0.125)"/>
       <use xlink:href="#ArialMT-2e" transform="translate(55.615234 0.125)"/>
       <use xlink:href="#ArialMT-30" transform="translate(83.398438 0.125)"/>
      </g>
     </g>
    </g>
    <g id="text_12">
     <!-- Score -->
     <g transform="translate(28.0175 192.813312)rotate(-90)scale(0.14 -0.14)">
      <use xlink:href="#ArialMT-53"/>
      <use xlink:href="#ArialMT-63" x="66.699219"/>
      <use xlink:href="#ArialMT-6f" x="116.699219"/>
      <use xlink:href="#ArialMT-72" x="172.314453"/>
      <use xlink:href="#ArialMT-65" x="205.615234"/>
     </g>
    </g>
   </g>
   <g id="patch_7">
    <path d="M 57.6 307.584 
L 57.6 41.472 
" style="fill: none; stroke: #000000; stroke-width: 0.6; stroke-linejoin: miter; stroke-linecap: square"/>
   </g>
   <g id="patch_8">
    <path d="M 57.6 307.584 
L 414.72 307.584 
" style="fill: none; stroke: #000000; stroke-width: 0.6; stroke-linejoin: miter; stroke-linecap: square"/>
   </g>
  </g>
 </g>
 <defs>
  <clipPath id="p7703b00eab">
   <rect x="57.6" y="41.472" width="357.12" height="266.112"/>
  </clipPath>
 </defs>
</svg>
