<?xml version="1.0" encoding="utf-8" standalone="no"?>
<!DOCTYPE svg PUBLIC "-//W3C//DTD SVG 1.1//EN"
  "http://www.w3.org/Graphics/SVG/1.1/DTD/svg11.dtd">
<svg xmlns:xlink="http://www.w3.org/1999/xlink" width="460.8pt" height="345.6pt" viewBox="0 0 460.8 345.6" xmlns="http://www.w3.org/2000/svg" version="1.1">
 <metadata>
  <rdf:RDF xmlns:dc="http://purl.org/dc/elements/1.1/" xmlns:cc="http://creativecommons.org/ns#" xmlns:rdf="http://www.w3.org/1999/02/22-rdf-syntax-ns#">
   <cc:Work>
    <dc:type rdf:resource="http://purl.org/dc/dcmitype/StillImage"/>
    <dc:date>2022-09-22T14:19:49.625386</dc:date>
    <dc:format>image/svg+xml</dc:format>
    <dc:creator>
     <cc:Agent>
      <dc:title>Matplotlib v3.5.3, https://matplotlib.org/</dc:title>
     </cc:Agent>
    </dc:creator>
   </cc:Work>
  </rdf:RDF>
 </metadata>
 <defs>
  <style type="text/css">*{stroke-linejoin: round; stroke-linecap: butt}</style>
 </defs>
 <g id="figure_1">
  <g id="patch_1">
   <path d="M 0 345.6 
L 460.8 345.6 
L 460.8 0 
L 0 0 
z
" style="fill: #ffffff"/>
  </g>
  <g id="axes_1">
   <g id="patch_2">
    <path d="M 57.6 307.584 
L 414.72 307.584 
L 414.72 41.472 
L 57.6 41.472 
z
" style="fill: #ffffff"/>
   </g>
   <g id="PolyCollection_1">
    <defs>
     <path id="m22e0810886" d="M 118.496844 -281.642013 
L 115.743156 -281.642013 
L 115.730718 -281.862978 
L 115.728972 -282.083943 
L 115.737878 -282.304908 
L 115.757124 -282.525874 
L 115.786133 -282.746839 
L 115.824082 -282.967804 
L 115.869926 -283.188769 
L 115.922435 -283.409734 
L 115.980225 -283.630699 
L 116.041808 -283.851665 
L 116.105633 -284.07263 
L 116.170129 -284.293595 
L 116.23375 -284.51456 
L 116.295014 -284.735525 
L 116.352535 -284.95649 
L 116.405055 -285.177456 
L 116.451466 -285.398421 
L 116.490828 -285.619386 
L 116.522384 -285.840351 
L 116.54556 -286.061316 
L 116.559972 -286.282281 
L 116.565423 -286.503246 
L 116.561894 -286.724212 
L 116.549536 -286.945177 
L 116.52866 -287.166142 
L 116.499721 -287.387107 
L 116.463302 -287.608072 
L 116.420094 -287.829037 
L 116.370883 -288.050003 
L 116.316521 -288.270968 
L 116.257908 -288.491933 
L 116.195968 -288.712898 
L 116.131622 -288.933863 
L 116.065767 -289.154828 
L 115.999246 -289.375794 
L 115.932828 -289.596759 
L 115.867179 -289.817724 
L 115.802849 -290.038689 
L 115.740244 -290.259654 
L 115.679618 -290.480619 
L 115.621059 -290.701585 
L 115.564477 -290.92255 
L 115.50961 -291.143515 
L 115.456017 -291.36448 
L 115.403083 -291.585445 
L 115.35003 -291.80641 
L 115.295923 -292.027375 
L 115.239682 -292.248341 
L 115.180093 -292.469306 
L 115.115814 -292.690271 
L 115.04539 -292.911236 
L 114.967253 -293.132201 
L 114.879726 -293.353166 
L 114.781026 -293.574132 
L 114.669259 -293.795097 
L 114.542418 -294.016062 
L 114.398381 -294.237027 
L 114.234906 -294.457992 
L 114.049637 -294.678957 
L 113.84011 -294.899923 
L 113.60377 -295.120888 
L 113.338001 -295.341853 
L 113.040162 -295.562818 
L 112.707649 -295.783783 
L 112.33796 -296.004748 
L 111.928784 -296.225714 
L 111.478105 -296.446679 
L 110.984314 -296.667644 
L 110.446341 -296.888609 
L 109.863785 -297.109574 
L 109.237056 -297.330539 
L 108.567503 -297.551505 
L 107.857539 -297.77247 
L 107.110752 -297.993435 
L 106.331979 -298.2144 
L 105.527358 -298.435365 
L 104.704339 -298.65633 
L 103.871646 -298.877295 
L 103.039195 -299.098261 
L 102.217953 -299.319226 
L 101.41975 -299.540191 
L 100.657039 -299.761156 
L 99.942606 -299.982121 
L 99.289252 -300.203086 
L 98.709436 -300.424052 
L 98.214911 -300.645017 
L 97.816355 -300.865982 
L 97.523021 -301.086947 
L 97.34241 -301.307912 
L 97.28 -301.528877 
L 97.339025 -301.749843 
L 97.520329 -301.970808 
L 97.822302 -302.191773 
L 98.240891 -302.412738 
L 98.769703 -302.633703 
L 99.40019 -302.854668 
L 100.121896 -303.075634 
L 100.922783 -303.296599 
L 101.789588 -303.517564 
L 132.450412 -303.517564 
L 132.450412 -303.517564 
L 133.317217 -303.296599 
L 134.118104 -303.075634 
L 134.83981 -302.854668 
L 135.470297 -302.633703 
L 135.999109 -302.412738 
L 136.417698 -302.191773 
L 136.719671 -301.970808 
L 136.900975 -301.749843 
L 136.96 -301.528877 
L 136.89759 -301.307912 
L 136.716979 -301.086947 
L 136.423645 -300.865982 
L 136.025089 -300.645017 
L 135.530564 -300.424052 
L 134.950748 -300.203086 
L 134.297394 -299.982121 
L 133.582961 -299.761156 
L 132.82025 -299.540191 
L 132.022047 -299.319226 
L 131.200805 -299.098261 
L 130.368354 -298.877295 
L 129.535661 -298.65633 
L 128.712642 -298.435365 
L 127.908021 -298.2144 
L 127.129248 -297.993435 
L 126.382461 -297.77247 
L 125.672497 -297.551505 
L 125.002944 -297.330539 
L 124.376215 -297.109574 
L 123.793659 -296.888609 
L 123.255686 -296.667644 
L 122.761895 -296.446679 
L 122.311216 -296.225714 
L 121.90204 -296.004748 
L 121.532351 -295.783783 
L 121.199838 -295.562818 
L 120.901999 -295.341853 
L 120.63623 -295.120888 
L 120.39989 -294.899923 
L 120.190363 -294.678957 
L 120.005094 -294.457992 
L 119.841619 -294.237027 
L 119.697582 -294.016062 
L 119.570741 -293.795097 
L 119.458974 -293.574132 
L 119.360274 -293.353166 
L 119.272747 -293.132201 
L 119.19461 -292.911236 
L 119.124186 -292.690271 
L 119.059907 -292.469306 
L 119.000318 -292.248341 
L 118.944077 -292.027375 
L 118.88997 -291.80641 
L 118.836917 -291.585445 
L 118.783983 -291.36448 
L 118.73039 -291.143515 
L 118.675523 -290.92255 
L 118.618941 -290.701585 
L 118.560382 -290.480619 
L 118.499756 -290.259654 
L 118.437151 -290.038689 
L 118.372821 -289.817724 
L 118.307172 -289.596759 
L 118.240754 -289.375794 
L 118.174233 -289.154828 
L 118.108378 -288.933863 
L 118.044032 -288.712898 
L 117.982092 -288.491933 
L 117.923479 -288.270968 
L 117.869117 -288.050003 
L 117.819906 -287.829037 
L 117.776698 -287.608072 
L 117.740279 -287.387107 
L 117.71134 -287.166142 
L 117.690464 -286.945177 
L 117.678106 -286.724212 
L 117.674577 -286.503246 
L 117.680028 -286.282281 
L 117.69444 -286.061316 
L 117.717616 -285.840351 
L 117.749172 -285.619386 
L 117.788534 -285.398421 
L 117.834945 -285.177456 
L 117.887465 -284.95649 
L 117.944986 -284.735525 
L 118.00625 -284.51456 
L 118.069871 -284.293595 
L 118.134367 -284.07263 
L 118.198192 -283.851665 
L 118.259775 -283.630699 
L 118.317565 -283.409734 
L 118.370074 -283.188769 
L 118.415918 -282.967804 
L 118.453867 -282.746839 
L 118.482876 -282.525874 
L 118.502122 -282.304908 
L 118.511028 -282.083943 
L 118.509282 -281.862978 
L 118.496844 -281.642013 
z
" style="stroke: #000000; stroke-opacity: 0.3; stroke-width: 0.8"/>
    </defs>
    <g clip-path="url(#pdc07b8a872)">
     <use xlink:href="#m22e0810886" x="0" y="345.6" style="fill: #888888; fill-opacity: 0.3; stroke: #000000; stroke-opacity: 0.3; stroke-width: 0.8"/>
    </g>
   </g>
   <g id="PolyCollection_2">
    <defs>
     <path id="m90e4b3646b" d="M 197.323746 -288.031635 
L 195.636254 -288.031635 
L 195.628378 -288.18308 
L 195.62494 -288.334525 
L 195.625324 -288.48597 
L 195.628733 -288.637415 
L 195.634213 -288.78886 
L 195.640686 -288.940305 
L 195.646983 -289.09175 
L 195.651889 -289.243195 
L 195.654182 -289.39464 
L 195.652676 -289.546085 
L 195.646259 -289.69753 
L 195.633932 -289.848975 
L 195.614832 -290.00042 
L 195.588257 -290.151865 
L 195.553683 -290.30331 
L 195.510765 -290.454755 
L 195.459344 -290.6062 
L 195.399434 -290.757645 
L 195.331208 -290.90909 
L 195.254989 -291.060535 
L 195.171223 -291.21198 
L 195.080459 -291.363425 
L 194.983331 -291.51487 
L 194.880537 -291.666315 
L 194.772823 -291.81776 
L 194.66097 -291.969205 
L 194.545782 -292.12065 
L 194.428081 -292.272095 
L 194.308708 -292.42354 
L 194.188513 -292.574985 
L 194.068366 -292.72643 
L 193.94915 -292.877875 
L 193.831767 -293.02932 
L 193.717131 -293.180765 
L 193.606167 -293.33221 
L 193.499802 -293.483655 
L 193.398947 -293.6351 
L 193.304482 -293.786545 
L 193.217226 -293.93799 
L 193.137912 -294.089435 
L 193.067145 -294.24088 
L 193.005362 -294.392325 
L 192.95279 -294.54377 
L 192.909397 -294.695215 
L 192.874842 -294.846661 
L 192.848431 -294.998106 
L 192.829073 -295.149551 
L 192.815239 -295.300996 
L 192.804942 -295.452441 
L 192.795708 -295.603886 
L 192.784585 -295.755331 
L 192.768145 -295.906776 
L 192.742523 -296.058221 
L 192.703467 -296.209666 
L 192.646406 -296.361111 
L 192.566548 -296.512556 
L 192.458986 -296.664001 
L 192.318827 -296.815446 
L 192.141332 -296.966891 
L 191.922067 -297.118336 
L 191.657054 -297.269781 
L 191.342924 -297.421226 
L 190.977059 -297.572671 
L 190.557727 -297.724116 
L 190.084186 -297.875561 
L 189.55678 -298.027006 
L 188.976995 -298.178451 
L 188.347491 -298.329896 
L 187.672105 -298.481341 
L 186.955816 -298.632786 
L 186.204685 -298.784231 
L 185.425772 -298.935676 
L 184.627022 -299.087121 
L 183.817135 -299.238566 
L 183.005422 -299.390011 
L 182.201649 -299.541456 
L 181.415874 -299.692901 
L 180.658283 -299.844346 
L 179.939023 -299.995791 
L 179.268038 -300.147236 
L 178.654907 -300.298681 
L 178.108685 -300.450126 
L 177.637751 -300.601571 
L 177.249657 -300.753016 
L 176.950986 -300.904461 
L 176.747214 -301.055906 
L 176.642586 -301.207351 
L 176.64 -301.358796 
L 176.740915 -301.510241 
L 176.945272 -301.661686 
L 177.251451 -301.813131 
L 177.656257 -301.964576 
L 178.154937 -302.116021 
L 178.741248 -302.267466 
L 179.407561 -302.418911 
L 180.145001 -302.570356 
L 180.943639 -302.721801 
L 181.792711 -302.873246 
L 182.680864 -303.024691 
L 210.279136 -303.024691 
L 210.279136 -303.024691 
L 211.167289 -302.873246 
L 212.016361 -302.721801 
L 212.814999 -302.570356 
L 213.552439 -302.418911 
L 214.218752 -302.267466 
L 214.805063 -302.116021 
L 215.303743 -301.964576 
L 215.708549 -301.813131 
L 216.014728 -301.661686 
L 216.219085 -301.510241 
L 216.32 -301.358796 
L 216.317414 -301.207351 
L 216.212786 -301.055906 
L 216.009014 -300.904461 
L 215.710343 -300.753016 
L 215.322249 -300.601571 
L 214.851315 -300.450126 
L 214.305093 -300.298681 
L 213.691962 -300.147236 
L 213.020977 -299.995791 
L 212.301717 -299.844346 
L 211.544126 -299.692901 
L 210.758351 -299.541456 
L 209.954578 -299.390011 
L 209.142865 -299.238566 
L 208.332978 -299.087121 
L 207.534228 -298.935676 
L 206.755315 -298.784231 
L 206.004184 -298.632786 
L 205.287895 -298.481341 
L 204.612509 -298.329896 
L 203.983005 -298.178451 
L 203.40322 -298.027006 
L 202.875814 -297.875561 
L 202.402273 -297.724116 
L 201.982941 -297.572671 
L 201.617076 -297.421226 
L 201.302946 -297.269781 
L 201.037933 -297.118336 
L 200.818668 -296.966891 
L 200.641173 -296.815446 
L 200.501014 -296.664001 
L 200.393452 -296.512556 
L 200.313594 -296.361111 
L 200.256533 -296.209666 
L 200.217477 -296.058221 
L 200.191855 -295.906776 
L 200.175415 -295.755331 
L 200.164292 -295.603886 
L 200.155058 -295.452441 
L 200.144761 -295.300996 
L 200.130927 -295.149551 
L 200.111569 -294.998106 
L 200.085158 -294.846661 
L 200.050603 -294.695215 
L 200.00721 -294.54377 
L 199.954638 -294.392325 
L 199.892855 -294.24088 
L 199.822088 -294.089435 
L 199.742774 -293.93799 
L 199.655518 -293.786545 
L 199.561053 -293.6351 
L 199.460198 -293.483655 
L 199.353833 -293.33221 
L 199.242869 -293.180765 
L 199.128233 -293.02932 
L 199.01085 -292.877875 
L 198.891634 -292.72643 
L 198.771487 -292.574985 
L 198.651292 -292.42354 
L 198.531919 -292.272095 
L 198.414218 -292.12065 
L 198.29903 -291.969205 
L 198.187177 -291.81776 
L 198.079463 -291.666315 
L 197.976669 -291.51487 
L 197.879541 -291.363425 
L 197.788777 -291.21198 
L 197.705011 -291.060535 
L 197.628792 -290.90909 
L 197.560566 -290.757645 
L 197.500656 -290.6062 
L 197.449235 -290.454755 
L 197.406317 -290.30331 
L 197.371743 -290.151865 
L 197.345168 -290.00042 
L 197.326068 -289.848975 
L 197.313741 -289.69753 
L 197.307324 -289.546085 
L 197.305818 -289.39464 
L 197.308111 -289.243195 
L 197.313017 -289.09175 
L 197.319314 -288.940305 
L 197.325787 -288.78886 
L 197.331267 -288.637415 
L 197.334676 -288.48597 
L 197.33506 -288.334525 
L 197.331622 -288.18308 
L 197.323746 -288.031635 
z
" style="stroke: #000000; stroke-opacity: 0.3; stroke-width: 0.8"/>
    </defs>
    <g clip-path="url(#pdc07b8a872)">
     <use xlink:href="#m90e4b3646b" x="0" y="345.6" style="fill: #888888; fill-opacity: 0.3; stroke: #000000; stroke-opacity: 0.3; stroke-width: 0.8"/>
    </g>
   </g>
   <g id="PolyCollection_3">
    <defs>
     <path id="mc0af590a1a" d="M 276.473202 -157.059909 
L 275.206798 -157.059909 
L 275.202435 -158.54085 
L 275.202992 -160.021791 
L 275.207853 -161.502733 
L 275.216201 -162.983674 
L 275.227062 -164.464616 
L 275.239362 -165.945557 
L 275.251992 -167.426498 
L 275.263876 -168.90744 
L 275.274038 -170.388381 
L 275.281661 -171.869323 
L 275.286144 -173.350264 
L 275.287133 -174.831205 
L 275.284554 -176.312147 
L 275.278606 -177.793088 
L 275.269758 -179.27403 
L 275.258713 -180.754971 
L 275.246366 -182.235912 
L 275.233747 -183.716854 
L 275.221955 -185.197795 
L 275.212091 -186.678737 
L 275.205192 -188.159678 
L 275.202168 -189.64062 
L 275.203751 -191.121561 
L 275.210454 -192.602502 
L 275.22255 -194.083444 
L 275.240062 -195.564385 
L 275.262769 -197.045327 
L 275.29023 -198.526268 
L 275.321816 -200.007209 
L 275.356751 -201.488151 
L 275.394165 -202.969092 
L 275.433139 -204.450034 
L 275.472754 -205.930975 
L 275.512134 -207.411916 
L 275.550483 -208.892858 
L 275.587108 -210.373799 
L 275.62144 -211.854741 
L 275.653037 -213.335682 
L 275.681584 -214.816623 
L 275.706883 -216.297565 
L 275.728835 -217.778506 
L 275.747421 -219.259448 
L 275.762677 -220.740389 
L 275.774673 -222.22133 
L 275.783485 -223.702272 
L 275.789176 -225.183213 
L 275.79178 -226.664155 
L 275.791283 -228.145096 
L 275.787619 -229.626037 
L 275.780654 -231.106979 
L 275.770194 -232.58792 
L 275.755977 -234.068862 
L 275.73768 -235.549803 
L 275.71492 -237.030744 
L 275.687261 -238.511686 
L 275.654208 -239.992627 
L 275.615211 -241.473569 
L 275.569647 -242.95451 
L 275.516809 -244.435451 
L 275.455873 -245.916393 
L 275.385859 -247.397334 
L 275.305581 -248.878276 
L 275.213585 -250.359217 
L 275.108075 -251.840159 
L 274.986842 -253.3211 
L 274.847184 -254.802041 
L 274.68584 -256.282983 
L 274.49894 -257.763924 
L 274.281977 -259.244866 
L 274.029824 -260.725807 
L 273.736786 -262.206748 
L 273.39673 -263.68769 
L 273.003259 -265.168631 
L 272.549973 -266.649573 
L 272.030794 -268.130514 
L 271.440354 -269.611455 
L 270.774442 -271.092397 
L 270.030487 -272.573338 
L 269.208041 -274.05428 
L 268.309258 -275.535221 
L 267.3393 -277.016162 
L 266.306661 -278.497104 
L 265.223352 -279.978045 
L 264.104924 -281.458987 
L 262.970293 -282.939928 
L 261.841367 -284.420869 
L 260.742451 -285.901811 
L 259.699457 -287.382752 
L 258.738952 -288.863694 
L 257.887072 -290.344635 
L 257.168376 -291.825576 
L 256.604702 -293.306518 
L 256.214098 -294.787459 
L 256.009895 -296.268401 
L 256 -297.749342 
L 256.186444 -299.230283 
L 256.565231 -300.711225 
L 257.126496 -302.192166 
L 257.854964 -303.673108 
L 293.825036 -303.673108 
L 293.825036 -303.673108 
L 294.553504 -302.192166 
L 295.114769 -300.711225 
L 295.493556 -299.230283 
L 295.68 -297.749342 
L 295.670105 -296.268401 
L 295.465902 -294.787459 
L 295.075298 -293.306518 
L 294.511624 -291.825576 
L 293.792928 -290.344635 
L 292.941048 -288.863694 
L 291.980543 -287.382752 
L 290.937549 -285.901811 
L 289.838633 -284.420869 
L 288.709707 -282.939928 
L 287.575076 -281.458987 
L 286.456648 -279.978045 
L 285.373339 -278.497104 
L 284.3407 -277.016162 
L 283.370742 -275.535221 
L 282.471959 -274.05428 
L 281.649513 -272.573338 
L 280.905558 -271.092397 
L 280.239646 -269.611455 
L 279.649206 -268.130514 
L 279.130027 -266.649573 
L 278.676741 -265.168631 
L 278.28327 -263.68769 
L 277.943214 -262.206748 
L 277.650176 -260.725807 
L 277.398023 -259.244866 
L 277.18106 -257.763924 
L 276.99416 -256.282983 
L 276.832816 -254.802041 
L 276.693158 -253.3211 
L 276.571925 -251.840159 
L 276.466415 -250.359217 
L 276.374419 -248.878276 
L 276.294141 -247.397334 
L 276.224127 -245.916393 
L 276.163191 -244.435451 
L 276.110353 -242.95451 
L 276.064789 -241.473569 
L 276.025792 -239.992627 
L 275.992739 -238.511686 
L 275.96508 -237.030744 
L 275.94232 -235.549803 
L 275.924023 -234.068862 
L 275.909806 -232.58792 
L 275.899346 -231.106979 
L 275.892381 -229.626037 
L 275.888717 -228.145096 
L 275.88822 -226.664155 
L 275.890824 -225.183213 
L 275.896515 -223.702272 
L 275.905327 -222.22133 
L 275.917323 -220.740389 
L 275.932579 -219.259448 
L 275.951165 -217.778506 
L 275.973117 -216.297565 
L 275.998416 -214.816623 
L 276.026963 -213.335682 
L 276.05856 -211.854741 
L 276.092892 -210.373799 
L 276.129517 -208.892858 
L 276.167866 -207.411916 
L 276.207246 -205.930975 
L 276.246861 -204.450034 
L 276.285835 -202.969092 
L 276.323249 -201.488151 
L 276.358184 -200.007209 
L 276.38977 -198.526268 
L 276.417231 -197.045327 
L 276.439938 -195.564385 
L 276.45745 -194.083444 
L 276.469546 -192.602502 
L 276.476249 -191.121561 
L 276.477832 -189.64062 
L 276.474808 -188.159678 
L 276.467909 -186.678737 
L 276.458045 -185.197795 
L 276.446253 -183.716854 
L 276.433634 -182.235912 
L 276.421287 -180.754971 
L 276.410242 -179.27403 
L 276.401394 -177.793088 
L 276.395446 -176.312147 
L 276.392867 -174.831205 
L 276.393856 -173.350264 
L 276.398339 -171.869323 
L 276.405962 -170.388381 
L 276.416124 -168.90744 
L 276.428008 -167.426498 
L 276.440638 -165.945557 
L 276.452938 -164.464616 
L 276.463799 -162.983674 
L 276.472147 -161.502733 
L 276.477008 -160.021791 
L 276.477565 -158.54085 
L 276.473202 -157.059909 
z
" style="stroke: #000000; stroke-opacity: 0.3; stroke-width: 0.8"/>
    </defs>
    <g clip-path="url(#pdc07b8a872)">
     <use xlink:href="#mc0af590a1a" x="0" y="345.6" style="fill: #888888; fill-opacity: 0.3; stroke: #000000; stroke-opacity: 0.3; stroke-width: 0.8"/>
    </g>
   </g>
   <g id="PolyCollection_4">
    <defs>
     <path id="me66d1d1f3c" d="M 357.242274 -291.405218 
L 353.157726 -291.405218 
L 353.091891 -291.519294 
L 353.031253 -291.63337 
L 352.975705 -291.747447 
L 352.925012 -291.861523 
L 352.878828 -291.975599 
L 352.836719 -292.089676 
L 352.798186 -292.203752 
L 352.762694 -292.317829 
L 352.729702 -292.431905 
L 352.698687 -292.545981 
L 352.669176 -292.660058 
L 352.640765 -292.774134 
L 352.613138 -292.888211 
L 352.586079 -293.002287 
L 352.559479 -293.116363 
L 352.533335 -293.23044 
L 352.507738 -293.344516 
L 352.482866 -293.458592 
L 352.458956 -293.572669 
L 352.436283 -293.686745 
L 352.41513 -293.800822 
L 352.395753 -293.914898 
L 352.378353 -294.028974 
L 352.363045 -294.143051 
L 352.349821 -294.257127 
L 352.338531 -294.371203 
L 352.328859 -294.48528 
L 352.320311 -294.599356 
L 352.3122 -294.713433 
L 352.303652 -294.827509 
L 352.293606 -294.941585 
L 352.280831 -295.055662 
L 352.263944 -295.169738 
L 352.241439 -295.283815 
L 352.211713 -295.397891 
L 352.173106 -295.511967 
L 352.123938 -295.626044 
L 352.062546 -295.74012 
L 351.987326 -295.854196 
L 351.896769 -295.968273 
L 351.789497 -296.082349 
L 351.664293 -296.196426 
L 351.520126 -296.310502 
L 351.356169 -296.424578 
L 351.171812 -296.538655 
L 350.966666 -296.652731 
L 350.740558 -296.766808 
L 350.493519 -296.880884 
L 350.225769 -296.99496 
L 349.937686 -297.109037 
L 349.629784 -297.223113 
L 349.302671 -297.337189 
L 348.957021 -297.451266 
L 348.593535 -297.565342 
L 348.212911 -297.679419 
L 347.815815 -297.793495 
L 347.402862 -297.907571 
L 346.974604 -298.021648 
L 346.531531 -298.135724 
L 346.074079 -298.249801 
L 345.602658 -298.363877 
L 345.117684 -298.477953 
L 344.61963 -298.59203 
L 344.109083 -298.706106 
L 343.586808 -298.820182 
L 343.053824 -298.934259 
L 342.51147 -299.048335 
L 341.961476 -299.162412 
L 341.406029 -299.276488 
L 340.847819 -299.390564 
L 340.290078 -299.504641 
L 339.736596 -299.618717 
L 339.191717 -299.732794 
L 338.660313 -299.84687 
L 338.147728 -299.960946 
L 337.659701 -300.075023 
L 337.202273 -300.189099 
L 336.781658 -300.303175 
L 336.404111 -300.417252 
L 336.075776 -300.531328 
L 335.802533 -300.645405 
L 335.589834 -300.759481 
L 335.442553 -300.873557 
L 335.364842 -300.987634 
L 335.36 -301.10171 
L 335.430367 -301.215786 
L 335.577241 -301.329863 
L 335.800819 -301.443939 
L 336.100176 -301.558016 
L 336.473261 -301.672092 
L 336.91694 -301.786168 
L 337.427051 -301.900245 
L 337.998497 -302.014321 
L 338.625355 -302.128398 
L 339.301009 -302.242474 
L 340.018292 -302.35655 
L 340.76964 -302.470627 
L 341.547253 -302.584703 
L 342.343251 -302.698779 
L 368.056749 -302.698779 
L 368.056749 -302.698779 
L 368.852747 -302.584703 
L 369.63036 -302.470627 
L 370.381708 -302.35655 
L 371.098991 -302.242474 
L 371.774645 -302.128398 
L 372.401503 -302.014321 
L 372.972949 -301.900245 
L 373.48306 -301.786168 
L 373.926739 -301.672092 
L 374.299824 -301.558016 
L 374.599181 -301.443939 
L 374.822759 -301.329863 
L 374.969633 -301.215786 
L 375.04 -301.10171 
L 375.035158 -300.987634 
L 374.957447 -300.873557 
L 374.810166 -300.759481 
L 374.597467 -300.645405 
L 374.324224 -300.531328 
L 373.995889 -300.417252 
L 373.618342 -300.303175 
L 373.197727 -300.189099 
L 372.740299 -300.075023 
L 372.252272 -299.960946 
L 371.739687 -299.84687 
L 371.208283 -299.732794 
L 370.663404 -299.618717 
L 370.109922 -299.504641 
L 369.552181 -299.390564 
L 368.993971 -299.276488 
L 368.438524 -299.162412 
L 367.88853 -299.048335 
L 367.346176 -298.934259 
L 366.813192 -298.820182 
L 366.290917 -298.706106 
L 365.78037 -298.59203 
L 365.282316 -298.477953 
L 364.797342 -298.363877 
L 364.325921 -298.249801 
L 363.868469 -298.135724 
L 363.425396 -298.021648 
L 362.997138 -297.907571 
L 362.584185 -297.793495 
L 362.187089 -297.679419 
L 361.806465 -297.565342 
L 361.442979 -297.451266 
L 361.097329 -297.337189 
L 360.770216 -297.223113 
L 360.462314 -297.109037 
L 360.174231 -296.99496 
L 359.906481 -296.880884 
L 359.659442 -296.766808 
L 359.433334 -296.652731 
L 359.228188 -296.538655 
L 359.043831 -296.424578 
L 358.879874 -296.310502 
L 358.735707 -296.196426 
L 358.610503 -296.082349 
L 358.503231 -295.968273 
L 358.412674 -295.854196 
L 358.337454 -295.74012 
L 358.276062 -295.626044 
L 358.226894 -295.511967 
L 358.188287 -295.397891 
L 358.158561 -295.283815 
L 358.136056 -295.169738 
L 358.119169 -295.055662 
L 358.106394 -294.941585 
L 358.096348 -294.827509 
L 358.0878 -294.713433 
L 358.079689 -294.599356 
L 358.071141 -294.48528 
L 358.061469 -294.371203 
L 358.050179 -294.257127 
L 358.036955 -294.143051 
L 358.021647 -294.028974 
L 358.004247 -293.914898 
L 357.98487 -293.800822 
L 357.963717 -293.686745 
L 357.941044 -293.572669 
L 357.917134 -293.458592 
L 357.892262 -293.344516 
L 357.866665 -293.23044 
L 357.840521 -293.116363 
L 357.813921 -293.002287 
L 357.786862 -292.888211 
L 357.759235 -292.774134 
L 357.730824 -292.660058 
L 357.701313 -292.545981 
L 357.670298 -292.431905 
L 357.637306 -292.317829 
L 357.601814 -292.203752 
L 357.563281 -292.089676 
L 357.521172 -291.975599 
L 357.474988 -291.861523 
L 357.424295 -291.747447 
L 357.368747 -291.63337 
L 357.308109 -291.519294 
L 357.242274 -291.405218 
z
" style="stroke: #000000; stroke-opacity: 0.3; stroke-width: 0.8"/>
    </defs>
    <g clip-path="url(#pdc07b8a872)">
     <use xlink:href="#me66d1d1f3c" x="0" y="345.6" style="fill: #888888; fill-opacity: 0.3; stroke: #000000; stroke-opacity: 0.3; stroke-width: 0.8"/>
    </g>
   </g>
   <g id="matplotlib.axis_1">
    <g id="xtick_1">
     <g id="line2d_1">
      <defs>
       <path id="m50715dcc88" d="M 0 0 
L 0 3.5 
" style="stroke: #323034; stroke-width: 0.8"/>
      </defs>
      <g>
       <use xlink:href="#m50715dcc88" x="117.12" y="307.584" style="fill: #323034; stroke: #323034; stroke-width: 0.8"/>
      </g>
     </g>
     <g id="text_1">
      <!-- Precision -->
      <g style="fill: #323034" transform="translate(92.444063 323.173375)scale(0.12 -0.12)">
       <defs>
        <path id="ArialMT-50" d="M 494 0 
L 494 4581 
L 2222 4581 
Q 2678 4581 2919 4538 
Q 3256 4481 3484 4323 
Q 3713 4166 3852 3881 
Q 3991 3597 3991 3256 
Q 3991 2672 3619 2267 
Q 3247 1863 2275 1863 
L 1100 1863 
L 1100 0 
L 494 0 
z
M 1100 2403 
L 2284 2403 
Q 2872 2403 3119 2622 
Q 3366 2841 3366 3238 
Q 3366 3525 3220 3729 
Q 3075 3934 2838 4000 
Q 2684 4041 2272 4041 
L 1100 4041 
L 1100 2403 
z
" transform="scale(0.015625)"/>
        <path id="ArialMT-72" d="M 416 0 
L 416 3319 
L 922 3319 
L 922 2816 
Q 1116 3169 1280 3281 
Q 1444 3394 1641 3394 
Q 1925 3394 2219 3213 
L 2025 2691 
Q 1819 2813 1613 2813 
Q 1428 2813 1281 2702 
Q 1134 2591 1072 2394 
Q 978 2094 978 1738 
L 978 0 
L 416 0 
z
" transform="scale(0.015625)"/>
        <path id="ArialMT-65" d="M 2694 1069 
L 3275 997 
Q 3138 488 2766 206 
Q 2394 -75 1816 -75 
Q 1088 -75 661 373 
Q 234 822 234 1631 
Q 234 2469 665 2931 
Q 1097 3394 1784 3394 
Q 2450 3394 2872 2941 
Q 3294 2488 3294 1666 
Q 3294 1616 3291 1516 
L 816 1516 
Q 847 969 1125 678 
Q 1403 388 1819 388 
Q 2128 388 2347 550 
Q 2566 713 2694 1069 
z
M 847 1978 
L 2700 1978 
Q 2663 2397 2488 2606 
Q 2219 2931 1791 2931 
Q 1403 2931 1139 2672 
Q 875 2413 847 1978 
z
" transform="scale(0.015625)"/>
        <path id="ArialMT-63" d="M 2588 1216 
L 3141 1144 
Q 3050 572 2676 248 
Q 2303 -75 1759 -75 
Q 1078 -75 664 370 
Q 250 816 250 1647 
Q 250 2184 428 2587 
Q 606 2991 970 3192 
Q 1334 3394 1763 3394 
Q 2303 3394 2647 3120 
Q 2991 2847 3088 2344 
L 2541 2259 
Q 2463 2594 2264 2762 
Q 2066 2931 1784 2931 
Q 1359 2931 1093 2626 
Q 828 2322 828 1663 
Q 828 994 1084 691 
Q 1341 388 1753 388 
Q 2084 388 2306 591 
Q 2528 794 2588 1216 
z
" transform="scale(0.015625)"/>
        <path id="ArialMT-69" d="M 425 3934 
L 425 4581 
L 988 4581 
L 988 3934 
L 425 3934 
z
M 425 0 
L 425 3319 
L 988 3319 
L 988 0 
L 425 0 
z
" transform="scale(0.015625)"/>
        <path id="ArialMT-73" d="M 197 991 
L 753 1078 
Q 800 744 1014 566 
Q 1228 388 1613 388 
Q 2000 388 2187 545 
Q 2375 703 2375 916 
Q 2375 1106 2209 1216 
Q 2094 1291 1634 1406 
Q 1016 1563 777 1677 
Q 538 1791 414 1992 
Q 291 2194 291 2438 
Q 291 2659 392 2848 
Q 494 3038 669 3163 
Q 800 3259 1026 3326 
Q 1253 3394 1513 3394 
Q 1903 3394 2198 3281 
Q 2494 3169 2634 2976 
Q 2775 2784 2828 2463 
L 2278 2388 
Q 2241 2644 2061 2787 
Q 1881 2931 1553 2931 
Q 1166 2931 1000 2803 
Q 834 2675 834 2503 
Q 834 2394 903 2306 
Q 972 2216 1119 2156 
Q 1203 2125 1616 2013 
Q 2213 1853 2448 1751 
Q 2684 1650 2818 1456 
Q 2953 1263 2953 975 
Q 2953 694 2789 445 
Q 2625 197 2315 61 
Q 2006 -75 1616 -75 
Q 969 -75 630 194 
Q 291 463 197 991 
z
" transform="scale(0.015625)"/>
        <path id="ArialMT-6f" d="M 213 1659 
Q 213 2581 725 3025 
Q 1153 3394 1769 3394 
Q 2453 3394 2887 2945 
Q 3322 2497 3322 1706 
Q 3322 1066 3130 698 
Q 2938 331 2570 128 
Q 2203 -75 1769 -75 
Q 1072 -75 642 372 
Q 213 819 213 1659 
z
M 791 1659 
Q 791 1022 1069 705 
Q 1347 388 1769 388 
Q 2188 388 2466 706 
Q 2744 1025 2744 1678 
Q 2744 2294 2464 2611 
Q 2184 2928 1769 2928 
Q 1347 2928 1069 2612 
Q 791 2297 791 1659 
z
" transform="scale(0.015625)"/>
        <path id="ArialMT-6e" d="M 422 0 
L 422 3319 
L 928 3319 
L 928 2847 
Q 1294 3394 1984 3394 
Q 2284 3394 2536 3286 
Q 2788 3178 2913 3003 
Q 3038 2828 3088 2588 
Q 3119 2431 3119 2041 
L 3119 0 
L 2556 0 
L 2556 2019 
Q 2556 2363 2490 2533 
Q 2425 2703 2258 2804 
Q 2091 2906 1866 2906 
Q 1506 2906 1245 2678 
Q 984 2450 984 1813 
L 984 0 
L 422 0 
z
" transform="scale(0.015625)"/>
       </defs>
       <use xlink:href="#ArialMT-50"/>
       <use xlink:href="#ArialMT-72" x="66.699219"/>
       <use xlink:href="#ArialMT-65" x="100"/>
       <use xlink:href="#ArialMT-63" x="155.615234"/>
       <use xlink:href="#ArialMT-69" x="205.615234"/>
       <use xlink:href="#ArialMT-73" x="227.832031"/>
       <use xlink:href="#ArialMT-69" x="277.832031"/>
       <use xlink:href="#ArialMT-6f" x="300.048828"/>
       <use xlink:href="#ArialMT-6e" x="355.664062"/>
      </g>
     </g>
    </g>
    <g id="xtick_2">
     <g id="line2d_2">
      <g>
       <use xlink:href="#m50715dcc88" x="196.48" y="307.584" style="fill: #323034; stroke: #323034; stroke-width: 0.8"/>
      </g>
     </g>
     <g id="text_2">
      <!-- Recall -->
      <g style="fill: #323034" transform="translate(179.8075 323.173375)scale(0.12 -0.12)">
       <defs>
        <path id="ArialMT-52" d="M 503 0 
L 503 4581 
L 2534 4581 
Q 3147 4581 3465 4457 
Q 3784 4334 3975 4021 
Q 4166 3709 4166 3331 
Q 4166 2844 3850 2509 
Q 3534 2175 2875 2084 
Q 3116 1969 3241 1856 
Q 3506 1613 3744 1247 
L 4541 0 
L 3778 0 
L 3172 953 
Q 2906 1366 2734 1584 
Q 2563 1803 2427 1890 
Q 2291 1978 2150 2013 
Q 2047 2034 1813 2034 
L 1109 2034 
L 1109 0 
L 503 0 
z
M 1109 2559 
L 2413 2559 
Q 2828 2559 3062 2645 
Q 3297 2731 3419 2920 
Q 3541 3109 3541 3331 
Q 3541 3656 3305 3865 
Q 3069 4075 2559 4075 
L 1109 4075 
L 1109 2559 
z
" transform="scale(0.015625)"/>
        <path id="ArialMT-61" d="M 2588 409 
Q 2275 144 1986 34 
Q 1697 -75 1366 -75 
Q 819 -75 525 192 
Q 231 459 231 875 
Q 231 1119 342 1320 
Q 453 1522 633 1644 
Q 813 1766 1038 1828 
Q 1203 1872 1538 1913 
Q 2219 1994 2541 2106 
Q 2544 2222 2544 2253 
Q 2544 2597 2384 2738 
Q 2169 2928 1744 2928 
Q 1347 2928 1158 2789 
Q 969 2650 878 2297 
L 328 2372 
Q 403 2725 575 2942 
Q 747 3159 1072 3276 
Q 1397 3394 1825 3394 
Q 2250 3394 2515 3294 
Q 2781 3194 2906 3042 
Q 3031 2891 3081 2659 
Q 3109 2516 3109 2141 
L 3109 1391 
Q 3109 606 3145 398 
Q 3181 191 3288 0 
L 2700 0 
Q 2613 175 2588 409 
z
M 2541 1666 
Q 2234 1541 1622 1453 
Q 1275 1403 1131 1340 
Q 988 1278 909 1158 
Q 831 1038 831 891 
Q 831 666 1001 516 
Q 1172 366 1500 366 
Q 1825 366 2078 508 
Q 2331 650 2450 897 
Q 2541 1088 2541 1459 
L 2541 1666 
z
" transform="scale(0.015625)"/>
        <path id="ArialMT-6c" d="M 409 0 
L 409 4581 
L 972 4581 
L 972 0 
L 409 0 
z
" transform="scale(0.015625)"/>
       </defs>
       <use xlink:href="#ArialMT-52"/>
       <use xlink:href="#ArialMT-65" x="72.216797"/>
       <use xlink:href="#ArialMT-63" x="127.832031"/>
       <use xlink:href="#ArialMT-61" x="177.832031"/>
       <use xlink:href="#ArialMT-6c" x="233.447266"/>
       <use xlink:href="#ArialMT-6c" x="255.664062"/>
      </g>
     </g>
    </g>
    <g id="xtick_3">
     <g id="line2d_3">
      <g>
       <use xlink:href="#m50715dcc88" x="275.84" y="307.584" style="fill: #323034; stroke: #323034; stroke-width: 0.8"/>
      </g>
     </g>
     <g id="text_3">
      <!-- Specificity -->
      <g style="fill: #323034" transform="translate(248.831562 323.319625)scale(0.12 -0.12)">
       <defs>
        <path id="ArialMT-53" d="M 288 1472 
L 859 1522 
Q 900 1178 1048 958 
Q 1197 738 1509 602 
Q 1822 466 2213 466 
Q 2559 466 2825 569 
Q 3091 672 3220 851 
Q 3350 1031 3350 1244 
Q 3350 1459 3225 1620 
Q 3100 1781 2813 1891 
Q 2628 1963 1997 2114 
Q 1366 2266 1113 2400 
Q 784 2572 623 2826 
Q 463 3081 463 3397 
Q 463 3744 659 4045 
Q 856 4347 1234 4503 
Q 1613 4659 2075 4659 
Q 2584 4659 2973 4495 
Q 3363 4331 3572 4012 
Q 3781 3694 3797 3291 
L 3216 3247 
Q 3169 3681 2898 3903 
Q 2628 4125 2100 4125 
Q 1550 4125 1298 3923 
Q 1047 3722 1047 3438 
Q 1047 3191 1225 3031 
Q 1400 2872 2139 2705 
Q 2878 2538 3153 2413 
Q 3553 2228 3743 1945 
Q 3934 1663 3934 1294 
Q 3934 928 3725 604 
Q 3516 281 3123 101 
Q 2731 -78 2241 -78 
Q 1619 -78 1198 103 
Q 778 284 539 648 
Q 300 1013 288 1472 
z
" transform="scale(0.015625)"/>
        <path id="ArialMT-70" d="M 422 -1272 
L 422 3319 
L 934 3319 
L 934 2888 
Q 1116 3141 1344 3267 
Q 1572 3394 1897 3394 
Q 2322 3394 2647 3175 
Q 2972 2956 3137 2557 
Q 3303 2159 3303 1684 
Q 3303 1175 3120 767 
Q 2938 359 2589 142 
Q 2241 -75 1856 -75 
Q 1575 -75 1351 44 
Q 1128 163 984 344 
L 984 -1272 
L 422 -1272 
z
M 931 1641 
Q 931 1000 1190 694 
Q 1450 388 1819 388 
Q 2194 388 2461 705 
Q 2728 1022 2728 1688 
Q 2728 2322 2467 2637 
Q 2206 2953 1844 2953 
Q 1484 2953 1207 2617 
Q 931 2281 931 1641 
z
" transform="scale(0.015625)"/>
        <path id="ArialMT-66" d="M 556 0 
L 556 2881 
L 59 2881 
L 59 3319 
L 556 3319 
L 556 3672 
Q 556 4006 616 4169 
Q 697 4388 901 4523 
Q 1106 4659 1475 4659 
Q 1713 4659 2000 4603 
L 1916 4113 
Q 1741 4144 1584 4144 
Q 1328 4144 1222 4034 
Q 1116 3925 1116 3625 
L 1116 3319 
L 1763 3319 
L 1763 2881 
L 1116 2881 
L 1116 0 
L 556 0 
z
" transform="scale(0.015625)"/>
        <path id="ArialMT-74" d="M 1650 503 
L 1731 6 
Q 1494 -44 1306 -44 
Q 1000 -44 831 53 
Q 663 150 594 308 
Q 525 466 525 972 
L 525 2881 
L 113 2881 
L 113 3319 
L 525 3319 
L 525 4141 
L 1084 4478 
L 1084 3319 
L 1650 3319 
L 1650 2881 
L 1084 2881 
L 1084 941 
Q 1084 700 1114 631 
Q 1144 563 1211 522 
Q 1278 481 1403 481 
Q 1497 481 1650 503 
z
" transform="scale(0.015625)"/>
        <path id="ArialMT-79" d="M 397 -1278 
L 334 -750 
Q 519 -800 656 -800 
Q 844 -800 956 -737 
Q 1069 -675 1141 -563 
Q 1194 -478 1313 -144 
Q 1328 -97 1363 -6 
L 103 3319 
L 709 3319 
L 1400 1397 
Q 1534 1031 1641 628 
Q 1738 1016 1872 1384 
L 2581 3319 
L 3144 3319 
L 1881 -56 
Q 1678 -603 1566 -809 
Q 1416 -1088 1222 -1217 
Q 1028 -1347 759 -1347 
Q 597 -1347 397 -1278 
z
" transform="scale(0.015625)"/>
       </defs>
       <use xlink:href="#ArialMT-53"/>
       <use xlink:href="#ArialMT-70" x="66.699219"/>
       <use xlink:href="#ArialMT-65" x="122.314453"/>
       <use xlink:href="#ArialMT-63" x="177.929688"/>
       <use xlink:href="#ArialMT-69" x="227.929688"/>
       <use xlink:href="#ArialMT-66" x="250.146484"/>
       <use xlink:href="#ArialMT-69" x="277.929688"/>
       <use xlink:href="#ArialMT-63" x="300.146484"/>
       <use xlink:href="#ArialMT-69" x="350.146484"/>
       <use xlink:href="#ArialMT-74" x="372.363281"/>
       <use xlink:href="#ArialMT-79" x="400.146484"/>
      </g>
     </g>
    </g>
    <g id="xtick_4">
     <g id="line2d_4">
      <g>
       <use xlink:href="#m50715dcc88" x="355.2" y="307.584" style="fill: #323034; stroke: #323034; stroke-width: 0.8"/>
      </g>
     </g>
     <g id="text_4">
      <!-- F1 -->
      <g style="fill: #323034" transform="translate(348.19875 323.173375)scale(0.12 -0.12)">
       <defs>
        <path id="ArialMT-46" d="M 525 0 
L 525 4581 
L 3616 4581 
L 3616 4041 
L 1131 4041 
L 1131 2622 
L 3281 2622 
L 3281 2081 
L 1131 2081 
L 1131 0 
L 525 0 
z
" transform="scale(0.015625)"/>
        <path id="ArialMT-31" d="M 2384 0 
L 1822 0 
L 1822 3584 
Q 1619 3391 1289 3197 
Q 959 3003 697 2906 
L 697 3450 
Q 1169 3672 1522 3987 
Q 1875 4303 2022 4600 
L 2384 4600 
L 2384 0 
z
" transform="scale(0.015625)"/>
       </defs>
       <use xlink:href="#ArialMT-46"/>
       <use xlink:href="#ArialMT-31" x="61.083984"/>
      </g>
     </g>
    </g>
    <g id="text_5">
     <!-- Metric -->
     <g transform="translate(217.105781 338.866187)scale(0.14 -0.14)">
      <defs>
       <path id="ArialMT-4d" d="M 475 0 
L 475 4581 
L 1388 4581 
L 2472 1338 
Q 2622 884 2691 659 
Q 2769 909 2934 1394 
L 4031 4581 
L 4847 4581 
L 4847 0 
L 4263 0 
L 4263 3834 
L 2931 0 
L 2384 0 
L 1059 3900 
L 1059 0 
L 475 0 
z
" transform="scale(0.015625)"/>
      </defs>
      <use xlink:href="#ArialMT-4d"/>
      <use xlink:href="#ArialMT-65" x="83.300781"/>
      <use xlink:href="#ArialMT-74" x="138.916016"/>
      <use xlink:href="#ArialMT-72" x="166.699219"/>
      <use xlink:href="#ArialMT-69" x="200"/>
      <use xlink:href="#ArialMT-63" x="222.216797"/>
     </g>
    </g>
   </g>
   <g id="matplotlib.axis_2">
    <g id="ytick_1">
     <g id="line2d_5">
      <defs>
       <path id="m6248cb9262" d="M 0 0 
L -3.5 0 
" style="stroke: #323034; stroke-width: 0.8"/>
      </defs>
      <g>
       <use xlink:href="#m6248cb9262" x="57.6" y="307.584" style="fill: #323034; stroke: #323034; stroke-width: 0.8"/>
      </g>
     </g>
     <g id="text_6">
      <!-- $\mathdefault{0.0}$ -->
      <g style="fill: #323034" transform="translate(33.8 311.878687)scale(0.12 -0.12)">
       <defs>
        <path id="ArialMT-30" d="M 266 2259 
Q 266 3072 433 3567 
Q 600 4063 929 4331 
Q 1259 4600 1759 4600 
Q 2128 4600 2406 4451 
Q 2684 4303 2865 4023 
Q 3047 3744 3150 3342 
Q 3253 2941 3253 2259 
Q 3253 1453 3087 958 
Q 2922 463 2592 192 
Q 2263 -78 1759 -78 
Q 1097 -78 719 397 
Q 266 969 266 2259 
z
M 844 2259 
Q 844 1131 1108 757 
Q 1372 384 1759 384 
Q 2147 384 2411 759 
Q 2675 1134 2675 2259 
Q 2675 3391 2411 3762 
Q 2147 4134 1753 4134 
Q 1366 4134 1134 3806 
Q 844 3388 844 2259 
z
" transform="scale(0.015625)"/>
        <path id="ArialMT-2e" d="M 581 0 
L 581 641 
L 1222 641 
L 1222 0 
L 581 0 
z
" transform="scale(0.015625)"/>
       </defs>
       <use xlink:href="#ArialMT-30" transform="translate(0 0.125)"/>
       <use xlink:href="#ArialMT-2e" transform="translate(55.615234 0.125)"/>
       <use xlink:href="#ArialMT-30" transform="translate(83.398438 0.125)"/>
      </g>
     </g>
    </g>
    <g id="ytick_2">
     <g id="line2d_6">
      <g>
       <use xlink:href="#m6248cb9262" x="57.6" y="254.3616" style="fill: #323034; stroke: #323034; stroke-width: 0.8"/>
      </g>
     </g>
     <g id="text_7">
      <!-- $\mathdefault{0.2}$ -->
      <g style="fill: #323034" transform="translate(33.8 258.656287)scale(0.12 -0.12)">
       <defs>
        <path id="ArialMT-32" d="M 3222 541 
L 3222 0 
L 194 0 
Q 188 203 259 391 
Q 375 700 629 1000 
Q 884 1300 1366 1694 
Q 2113 2306 2375 2664 
Q 2638 3022 2638 3341 
Q 2638 3675 2398 3904 
Q 2159 4134 1775 4134 
Q 1369 4134 1125 3890 
Q 881 3647 878 3216 
L 300 3275 
Q 359 3922 746 4261 
Q 1134 4600 1788 4600 
Q 2447 4600 2831 4234 
Q 3216 3869 3216 3328 
Q 3216 3053 3103 2787 
Q 2991 2522 2730 2228 
Q 2469 1934 1863 1422 
Q 1356 997 1212 845 
Q 1069 694 975 541 
L 3222 541 
z
" transform="scale(0.015625)"/>
       </defs>
       <use xlink:href="#ArialMT-30" transform="translate(0 0.125)"/>
       <use xlink:href="#ArialMT-2e" transform="translate(55.615234 0.125)"/>
       <use xlink:href="#ArialMT-32" transform="translate(83.398438 0.125)"/>
      </g>
     </g>
    </g>
    <g id="ytick_3">
     <g id="line2d_7">
      <g>
       <use xlink:href="#m6248cb9262" x="57.6" y="201.1392" style="fill: #323034; stroke: #323034; stroke-width: 0.8"/>
      </g>
     </g>
     <g id="text_8">
      <!-- $\mathdefault{0.4}$ -->
      <g style="fill: #323034" transform="translate(33.8 205.433887)scale(0.12 -0.12)">
       <defs>
        <path id="ArialMT-34" d="M 2069 0 
L 2069 1097 
L 81 1097 
L 81 1613 
L 2172 4581 
L 2631 4581 
L 2631 1613 
L 3250 1613 
L 3250 1097 
L 2631 1097 
L 2631 0 
L 2069 0 
z
M 2069 1613 
L 2069 3678 
L 634 1613 
L 2069 1613 
z
" transform="scale(0.015625)"/>
       </defs>
       <use xlink:href="#ArialMT-30" transform="translate(0 0.125)"/>
       <use xlink:href="#ArialMT-2e" transform="translate(55.615234 0.125)"/>
       <use xlink:href="#ArialMT-34" transform="translate(83.398438 0.125)"/>
      </g>
     </g>
    </g>
    <g id="ytick_4">
     <g id="line2d_8">
      <g>
       <use xlink:href="#m6248cb9262" x="57.6" y="147.9168" style="fill: #323034; stroke: #323034; stroke-width: 0.8"/>
      </g>
     </g>
     <g id="text_9">
      <!-- $\mathdefault{0.6}$ -->
      <g style="fill: #323034" transform="translate(33.8 152.211487)scale(0.12 -0.12)">
       <defs>
        <path id="ArialMT-36" d="M 3184 3459 
L 2625 3416 
Q 2550 3747 2413 3897 
Q 2184 4138 1850 4138 
Q 1581 4138 1378 3988 
Q 1113 3794 959 3422 
Q 806 3050 800 2363 
Q 1003 2672 1297 2822 
Q 1591 2972 1913 2972 
Q 2475 2972 2870 2558 
Q 3266 2144 3266 1488 
Q 3266 1056 3080 686 
Q 2894 316 2569 119 
Q 2244 -78 1831 -78 
Q 1128 -78 684 439 
Q 241 956 241 2144 
Q 241 3472 731 4075 
Q 1159 4600 1884 4600 
Q 2425 4600 2770 4297 
Q 3116 3994 3184 3459 
z
M 888 1484 
Q 888 1194 1011 928 
Q 1134 663 1356 523 
Q 1578 384 1822 384 
Q 2178 384 2434 671 
Q 2691 959 2691 1453 
Q 2691 1928 2437 2201 
Q 2184 2475 1800 2475 
Q 1419 2475 1153 2201 
Q 888 1928 888 1484 
z
" transform="scale(0.015625)"/>
       </defs>
       <use xlink:href="#ArialMT-30" transform="translate(0 0.125)"/>
       <use xlink:href="#ArialMT-2e" transform="translate(55.615234 0.125)"/>
       <use xlink:href="#ArialMT-36" transform="translate(83.398438 0.125)"/>
      </g>
     </g>
    </g>
    <g id="ytick_5">
     <g id="line2d_9">
      <g>
       <use xlink:href="#m6248cb9262" x="57.6" y="94.6944" style="fill: #323034; stroke: #323034; stroke-width: 0.8"/>
      </g>
     </g>
     <g id="text_10">
      <!-- $\mathdefault{0.8}$ -->
      <g style="fill: #323034" transform="translate(33.8 98.989088)scale(0.12 -0.12)">
       <defs>
        <path id="ArialMT-38" d="M 1131 2484 
Q 781 2613 612 2850 
Q 444 3088 444 3419 
Q 444 3919 803 4259 
Q 1163 4600 1759 4600 
Q 2359 4600 2725 4251 
Q 3091 3903 3091 3403 
Q 3091 3084 2923 2848 
Q 2756 2613 2416 2484 
Q 2838 2347 3058 2040 
Q 3278 1734 3278 1309 
Q 3278 722 2862 322 
Q 2447 -78 1769 -78 
Q 1091 -78 675 323 
Q 259 725 259 1325 
Q 259 1772 486 2073 
Q 713 2375 1131 2484 
z
M 1019 3438 
Q 1019 3113 1228 2906 
Q 1438 2700 1772 2700 
Q 2097 2700 2305 2904 
Q 2513 3109 2513 3406 
Q 2513 3716 2298 3927 
Q 2084 4138 1766 4138 
Q 1444 4138 1231 3931 
Q 1019 3725 1019 3438 
z
M 838 1322 
Q 838 1081 952 856 
Q 1066 631 1291 507 
Q 1516 384 1775 384 
Q 2178 384 2440 643 
Q 2703 903 2703 1303 
Q 2703 1709 2433 1975 
Q 2163 2241 1756 2241 
Q 1359 2241 1098 1978 
Q 838 1716 838 1322 
z
" transform="scale(0.015625)"/>
       </defs>
       <use xlink:href="#ArialMT-30" transform="translate(0 0.125)"/>
       <use xlink:href="#ArialMT-2e" transform="translate(55.615234 0.125)"/>
       <use xlink:href="#ArialMT-38" transform="translate(83.398438 0.125)"/>
      </g>
     </g>
    </g>
    <g id="ytick_6">
     <g id="line2d_10">
      <g>
       <use xlink:href="#m6248cb9262" x="57.6" y="41.472" style="fill: #323034; stroke: #323034; stroke-width: 0.8"/>
      </g>
     </g>
     <g id="text_11">
      <!-- $\mathdefault{1.0}$ -->
      <g style="fill: #323034" transform="translate(33.8 45.766688)scale(0.12 -0.12)">
       <use xlink:href="#ArialMT-31" transform="translate(0 0.125)"/>
       <use xlink:href="#ArialMT-2e" transform="translate(55.615234 0.125)"/>
       <use xlink:href="#ArialMT-30" transform="translate(83.398438 0.125)"/>
      </g>
     </g>
    </g>
    <g id="text_12">
     <!-- Score -->
     <g transform="translate(28.0175 192.813312)rotate(-90)scale(0.14 -0.14)">
      <use xlink:href="#ArialMT-53"/>
      <use xlink:href="#ArialMT-63" x="66.699219"/>
      <use xlink:href="#ArialMT-6f" x="116.699219"/>
      <use xlink:href="#ArialMT-72" x="172.314453"/>
      <use xlink:href="#ArialMT-65" x="205.615234"/>
     </g>
    </g>
   </g>
   <g id="LineCollection_1">
    <path d="M 107.2 42.082436 
L 127.04 42.082436 
" clip-path="url(#pdc07b8a872)" style="fill: none; stroke: #888888; stroke-width: 2"/>
    <path d="M 186.56 42.575309 
L 206.4 42.575309 
" clip-path="url(#pdc07b8a872)" style="fill: none; stroke: #888888; stroke-width: 2"/>
    <path d="M 265.92 41.926892 
L 285.76 41.926892 
" clip-path="url(#pdc07b8a872)" style="fill: none; stroke: #888888; stroke-width: 2"/>
    <path d="M 345.28 42.901221 
L 365.12 42.901221 
" clip-path="url(#pdc07b8a872)" style="fill: none; stroke: #888888; stroke-width: 2"/>
   </g>
   <g id="LineCollection_2">
    <path d="M 107.2 63.957987 
L 127.04 63.957987 
" clip-path="url(#pdc07b8a872)" style="fill: none; stroke: #888888; stroke-width: 2"/>
    <path d="M 186.56 57.568365 
L 206.4 57.568365 
" clip-path="url(#pdc07b8a872)" style="fill: none; stroke: #888888; stroke-width: 2"/>
    <path d="M 265.92 188.540091 
L 285.76 188.540091 
" clip-path="url(#pdc07b8a872)" style="fill: none; stroke: #888888; stroke-width: 2"/>
    <path d="M 345.28 54.194782 
L 365.12 54.194782 
" clip-path="url(#pdc07b8a872)" style="fill: none; stroke: #888888; stroke-width: 2"/>
   </g>
   <g id="LineCollection_3">
    <path d="M 117.12 63.957987 
L 117.12 42.082436 
" clip-path="url(#pdc07b8a872)" style="fill: none; stroke: #888888; stroke-width: 2"/>
    <path d="M 196.48 57.568365 
L 196.48 42.575309 
" clip-path="url(#pdc07b8a872)" style="fill: none; stroke: #888888; stroke-width: 2"/>
    <path d="M 275.84 188.540091 
L 275.84 41.926892 
" clip-path="url(#pdc07b8a872)" style="fill: none; stroke: #888888; stroke-width: 2"/>
    <path d="M 355.2 54.194782 
L 355.2 42.901221 
" clip-path="url(#pdc07b8a872)" style="fill: none; stroke: #888888; stroke-width: 2"/>
   </g>
   <g id="patch_3">
    <path d="M 57.6 307.584 
L 57.6 41.472 
" style="fill: none; stroke: #000000; stroke-width: 0.6; stroke-linejoin: miter; stroke-linecap: square"/>
   </g>
   <g id="patch_4">
    <path d="M 57.6 307.584 
L 414.72 307.584 
" style="fill: none; stroke: #000000; stroke-width: 0.6; stroke-linejoin: miter; stroke-linecap: square"/>
   </g>
  </g>
 </g>
 <defs>
  <clipPath id="pdc07b8a872">
   <rect x="57.6" y="41.472" width="357.12" height="266.112"/>
  </clipPath>
 </defs>
</svg>
